<?xml version="1.0" encoding="UTF-8"?>
<svg version="1.1" viewBox="0 0 2048 1212" width="1280" height="1280" xmlns="http://www.w3.org/2000/svg">
<path transform="translate(0)" d="m0 0h2048v1212h-2048z" fill="#FF564F"/>
<path transform="translate(0)" d="m0 0h2048v1212h-2048zm683 6-33 2-24 3-21 5-19 8-12 8-12 11-8 10-7 12-7 19-4 19-3 26-1 14-1 32-1 136-2 33-4 27-5 18-9 19-11 14-11 10-9 6-42 1h-119l-1 4v16h-28l-75 1-45 2-29 3-25 5-17 6-15 8-10 8-10 10-9 14-6 14-6 21-4 28-2 31v278l2 29 4 27 5 17 8 16 6 9 9 10 10 9 11 7 13 6 17 5 25 4 28 2 37 1 191 1 16 4 14 6 11 8 10 9 10 14 7 16 3 14 2 24 4 17 8 16 8 11 10 10 14 9 11 5 14 4 6 1h1327l35-2 24-3 20-4 19-7 13-7 11-9 7-7 7-10 8-16 5-15 4-19 3-30 1-22 1-48v-735l-2-17-6-18-9-15-11-12-11-9-13-7-14-1-8-3-31-1-5-2-13-5-17-9-11-9-7-8-7-10-6-13-2-5-2-9-1-22-1-1-1-13-6-22-7-12-11-12-9-8-14-8-13-5-13-3z" fill="#FEFEFE"/>
</svg>
