<?xml version="1.0" encoding="UTF-8"?>
<svg version="1.1" xmlns="http://www.w3.org/2000/svg" width="92" height="66">
<path d="M0 0 C30.36 0 60.72 0 92 0 C92 21.78 92 43.56 92 66 C61.64 66 31.28 66 0 66 C0 44.22 0 22.44 0 0 Z " fill="#FF5353" transform="translate(0,0)"/>
<path d="M0 0 C2.31 0 4.62 0 7 0 C7 3.96 7 7.92 7 12 C7.66 12 8.32 12 9 12 C9 8.04 9 4.08 9 0 C11.64 0 14.28 0 17 0 C17 3.96 17 7.92 17 12 C17.66 12 18.32 12 19 12 C19 8.04 19 4.08 19 0 C21.31 0 23.62 0 26 0 C26.0814222 2.22855574 26.13938079 4.45797655 26.1875 6.6875 C26.23970703 8.54955078 26.23970703 8.54955078 26.29296875 10.44921875 C25.98058539 14.23530504 25.43650391 16.10357176 23 19 C21.0625 19.5234375 21.0625 19.5234375 19 19.375 C18.319375 19.34148438 17.63875 19.30796875 16.9375 19.2734375 C15 19 15 19 12 18 C11.34 18.33 10.68 18.66 10 19 C6.5625 19.375 6.5625 19.375 3 19 C-0.28249875 15.03552091 -0.32824791 11.7075088 -0.1875 6.6875 C-0.14689453 4.80611328 -0.14689453 4.80611328 -0.10546875 2.88671875 C-0.07066406 1.93410156 -0.03585938 0.98148438 0 0 Z " fill="#FFF3F3" transform="translate(7,30)"/>
<path d="M0 0 C2.31 0 4.62 0 7 0 C7 2.31 7 4.62 7 7 C8.32 7 9.64 7 11 7 C11 9.64 11 12.28 11 15 C10.01 15 9.02 15 8 15 C8 15.99 8 16.98 8 18 C8.99 18 9.98 18 11 18 C11 20.64 11 23.28 11 26 C8.3125 26.375 8.3125 26.375 5 26 C1.9904275 23.34037779 0.2752262 21.63118178 -0.3996582 17.63134766 C-0.49146721 14.94587109 -0.43693608 12.30899048 -0.3125 9.625 C-0.28994141 8.69816406 -0.26738281 7.77132813 -0.24414062 6.81640625 C-0.18553677 4.54257665 -0.1035693 2.27215114 0 0 Z " fill="#FFEDED" transform="translate(61,23)"/>
<path d="M0 0 C2.31 0 4.62 0 7 0 C7 2.31 7 4.62 7 7 C7.99 7 8.98 7 10 7 C10 9.64 10 12.28 10 15 C9.01 15 8.02 15 7 15 C7.495 15.350625 7.99 15.70125 8.5 16.0625 C10.73063966 18.94374289 10.19980621 21.47009026 10 25 C7.25 25.3125 7.25 25.3125 4 25 C1.4540953 22.81779597 0.14974992 21.07877538 -0.31738281 17.71362305 C-0.39373189 15.02740797 -0.34868574 12.37289079 -0.25 9.6875 C-0.23195312 8.75615234 -0.21390625 7.82480469 -0.1953125 6.86523438 C-0.14834888 4.57575803 -0.08269475 2.28841816 0 0 Z " fill="#FFF4F4" transform="translate(48,23)"/>
<path d="M0 0 C1.98 0 3.96 0 6 0 C6 5.94 6 11.88 6 18 C4.02 18 2.04 18 0 18 C0 12.06 0 6.12 0 0 Z " fill="#FFFBFB" transform="translate(38,30)"/>
<path d="M0 0 C3.29714793 0.32971479 4.6226839 0.6226839 7 3 C6.44444444 7.55555556 6.44444444 7.55555556 5 9 C2 9.125 2 9.125 -1 9 C-2 8 -2 8 -2.1875 5.0625 C-2 2 -2 2 0 0 Z " fill="#FFEBEB" transform="translate(78,40)"/>
<path d="M0 0 C0.33 0 0.66 0 1 0 C1.36103536 1.81114432 1.71365504 3.62396823 2.0625 5.4375 C2.25972656 6.44683594 2.45695312 7.45617188 2.66015625 8.49609375 C2.77230469 9.32238281 2.88445313 10.14867187 3 11 C2.67 11.33 2.34 11.66 2 12 C1.63239269 14.32817964 1.29758419 16.6618385 1 19 C-0.98 19 -2.96 19 -5 19 C-5 18.67 -5 18.34 -5 18 C-3.35 18 -1.7 18 0 18 C0 15.69 0 13.38 0 11 C-0.99 10.67 -1.98 10.34 -3 10 C-3 9.34 -3 8.68 -3 8 C-2.01 8 -1.02 8 0 8 C0 5.36 0 2.72 0 0 Z " fill="#FF7676" transform="translate(58,30)"/>
<path d="M0 0 C1.98 0 3.96 0 6 0 C6 1.65 6 3.3 6 5 C4.34385343 5.38218767 2.67542976 5.71395102 1 6 C0 5 0 5 -0.0625 2.4375 C-0.041875 1.633125 -0.02125 0.82875 0 0 Z " fill="#FFF4F4" transform="translate(38,22)"/>
</svg>
