<?xml version="1.0" encoding="UTF-8"?>
<svg version="1.1" xmlns="http://www.w3.org/2000/svg" width="1118" height="662">
<path d="M0 0 C368.94 0 737.88 0 1118 0 C1118 218.46 1118 436.92 1118 662 C749.06 662 380.12 662 0 662 C0 443.54 0 225.08 0 0 Z " fill="#FE5252" transform="translate(0,0)"/>
<path d="M0 0 C368.94 0 737.88 0 1118 0 C1118 218.46 1118 436.92 1118 662 C749.06 662 380.12 662 0 662 C0 443.54 0 225.08 0 0 Z M354.47502136 4.39465523 C353.64917803 4.42659233 352.8233347 4.45852943 351.97246581 4.49143433 C332.16503144 5.46864845 316.38785735 12.33569505 303 27 C300.35383022 30.10665521 299.08642646 33.06691116 297.8125 36.9375 C297.29623047 38.46697266 297.29623047 38.46697266 296.76953125 40.02734375 C296.04186931 42.83826121 295.84594504 45.11545361 296 48 C295.34 48 294.68 48 294 48 C292.46420051 57.00604748 291.68425715 65.86151654 291.34204102 74.98144531 C291.31037842 75.7906543 291.27871582 76.59986328 291.24609375 77.43359375 C291.21020142 78.50178345 291.21020142 78.50178345 291.17358398 79.59155273 C291 82 291 82 290.5 85.09187317 C289.94766693 89.40904853 289.84051916 93.59291387 289.82641602 97.93847656 C289.819729 98.80630768 289.81304199 99.67413879 289.80615234 100.56826782 C289.79215954 102.44462974 289.78024742 104.32100811 289.77020454 106.19739532 C289.7536568 109.18567272 289.73040806 112.17383124 289.70530701 115.16204834 C289.63495558 123.6561477 289.57489428 132.15029834 289.52319336 140.64453125 C289.49102244 145.85282153 289.44964857 151.06097772 289.40299797 156.26915741 C289.38719171 158.23510018 289.37477443 160.20107372 289.36609077 162.16706085 C289.21330885 196.29673615 289.21330885 196.29673615 284.1875 209.625 C283.92179199 210.36661377 283.65608398 211.10822754 283.38232422 211.87231445 C280.29044432 220.27552962 277.17120234 226.62137878 270.0625 232.296875 C267.85634563 234.00381108 267.85634563 234.00381108 265.92292786 236.56523132 C261.95212521 239.87286886 259.18622515 239.71195301 254.1706543 239.65942383 C253.29210281 239.66990753 252.41355133 239.68039124 251.50837708 239.69119263 C248.61329753 239.71992387 245.71941522 239.71365339 242.82421875 239.70703125 C240.81352745 239.72014745 238.80284933 239.73545143 236.79219055 239.75285339 C231.50675515 239.79272528 226.22166426 239.80289528 220.93609619 239.80688477 C215.53997329 239.81621202 210.14405317 239.85362306 204.74804688 239.88867188 C194.16537407 239.95327011 183.58285271 239.9864919 173 240 C173 243.63 173 247.26 173 251 C172.14176132 250.99111755 171.28352264 250.98223511 170.39927673 250.9730835 C162.15323285 250.89161019 153.90733148 250.83138146 145.66097164 250.79275131 C141.42541231 250.77222117 137.19019591 250.74457249 132.95483398 250.69824219 C83.40605937 248.77039528 83.40605937 248.77039528 40 268 C39.10410156 268.80308594 38.20820312 269.60617187 37.28515625 270.43359375 C30.03628612 277.59730828 27.59083622 284.38152054 25 294 C24.65066406 295.02222656 24.30132812 296.04445313 23.94140625 297.09765625 C16.97781835 318.56631106 19.82409191 344.31458453 19.79981136 366.64497066 C19.79684667 369.23963483 19.79273645 371.83429492 19.78830719 374.42895699 C19.77469984 382.59334662 19.76499723 390.75772655 19.7611053 398.92212671 C19.75662389 408.26337329 19.73904332 417.60447362 19.7101047 426.94567579 C19.68834634 434.22787858 19.67839374 441.5100406 19.67706418 448.79227549 C19.67602736 453.11478368 19.67036248 457.43715316 19.65224457 461.75962639 C19.58247174 479.39140985 19.65696632 496.61095006 23 514 C23.39597588 516.27080848 23.79184538 518.54163552 24.1875 520.8125 C24.45384675 522.20919639 24.72240544 523.60549555 25 525 C25.66 525 26.32 525 27 525 C27.2784375 526.4540625 27.2784375 526.4540625 27.5625 527.9375 C29.06493152 533.18542982 32.53505478 536.89863627 36 541 C36.54914062 541.70640625 37.09828125 542.4128125 37.6640625 543.140625 C47.02447697 554.76350932 61.6327577 559.18148124 76 561 C90.19114398 562.21815043 104.42302736 562.14853837 118.65528297 562.16866493 C122.73074489 562.17593504 126.80609416 562.19133001 130.8815155 562.21000671 C132.28907868 562.21633977 133.69664189 562.22266544 135.10420513 562.22898388 C135.80788987 562.23214969 136.5115746 562.2353155 137.23658311 562.23857725 C146.69180717 562.28033374 156.14698439 562.31366629 165.60229492 562.32592773 C172.02823546 562.33434498 178.45396253 562.35694867 184.87979621 562.3952834 C188.26201447 562.41487976 191.64391503 562.42750315 195.02619362 562.42244911 C198.79618849 562.42008256 202.56532656 562.44236059 206.33520508 562.4699707 C207.42903 562.46336929 208.52285492 562.45676788 209.64982605 562.44996643 C219.65517007 562.5694949 229.64388869 564.75517347 238 570.5 C238.845625 571.0671875 239.69125 571.634375 240.5625 572.21875 C248.17312661 577.78036176 248.17312661 577.78036176 250 583 C251.39957197 585.28484306 251.39957197 585.28484306 253 587 C253.66 587 254.32 587 255 587 C257.55979551 595.22791414 258.97014016 603.32144394 259.3125 611.9375 C260.19456032 625.40362092 267.20877368 636.68800948 276.8125 645.9375 C281.34916099 649.68517647 286.4615241 651.25318623 292 653 C293.15335818 653.51270769 293.15335818 653.51270769 294.33001653 654.03577311 C297.19155903 655.06917884 299.3009991 655.25066013 302.33301675 655.251849 C303.92997465 655.25974389 303.92997465 655.25974389 305.55919433 655.26779827 C306.72509605 655.26340179 307.89099777 655.25900531 309.09222984 655.25447559 C310.3388165 655.25768207 311.58540315 655.26088855 312.86976516 655.26419219 C316.34280334 655.27283488 319.81573382 655.26897634 323.28877373 655.26313647 C327.06260841 655.25897548 330.8364231 655.2663629 334.61025298 655.27228898 C341.22914985 655.28106656 347.84801579 655.28235756 354.46691704 655.27878571 C364.31025047 655.27348782 374.15355385 655.27956504 383.99688402 655.28786864 C402.60319812 655.30313201 421.20949865 655.30481104 439.8158177 655.30234561 C454.19098122 655.30051396 468.56614029 655.30226989 482.94130325 655.30657005 C485.0056203 655.30717246 487.06993735 655.30777365 489.1342544 655.30837366 C492.24499645 655.30928091 495.35573851 655.31018957 498.46648055 655.31110601 C527.40428139 655.3195401 556.34208054 655.3238684 585.27988243 655.31969929 C586.37150606 655.31954291 587.46312968 655.31938654 588.58783281 655.31922542 C594.12070547 655.31841963 599.65357812 655.31757386 605.18645076 655.31671212 C606.28530394 655.31654103 607.38415712 655.31636994 608.51630887 655.31619367 C610.73846419 655.31584701 612.9606195 655.31549848 615.18277481 655.31514808 C649.72342249 655.30979644 684.2640446 655.31770356 718.8046875 655.33618164 C757.6111158 655.35691744 796.41752827 655.36762081 835.22396243 655.36360615 C839.36597927 655.36321082 843.50799612 655.36284927 847.65001297 655.36250877 C848.66987794 655.36241804 849.68974292 655.36232731 850.74051289 655.36223383 C866.11409794 655.36106949 881.48766697 655.36770413 896.86124802 655.37832069 C914.36301356 655.3903946 931.86474393 655.39190699 949.36651002 655.37953053 C959.15091431 655.37292041 968.93523441 655.37448998 978.7196319 655.38811904 C985.27082278 655.39640423 991.82195102 655.39361352 998.37313687 655.38214377 C1002.09597071 655.37592702 1005.81864111 655.37418214 1009.54146509 655.38600711 C1053.92707485 655.89221578 1053.92707485 655.89221578 1092.375 636.25 C1103.47679183 624.26006483 1107.70520659 610.14065135 1109.12349033 594.13834286 C1109.20659597 593.22618489 1109.28970161 592.31402693 1109.37532559 591.37422782 C1110.16325869 582.11098725 1110.28861238 572.89002701 1110.27415466 563.59901428 C1110.2786226 561.74707989 1110.28394164 559.89514739 1110.29002339 558.0432176 C1110.30402487 553.02117391 1110.30587014 547.9991926 1110.30542648 542.9771322 C1110.30709045 537.53545219 1110.32018506 532.09379675 1110.33161926 526.65213013 C1110.35433646 514.79124198 1110.36237377 502.93037188 1110.36744571 491.06946492 C1110.3707148 483.65542732 1110.37724404 476.24139484 1110.3844471 468.82736015 C1110.40398673 448.27021612 1110.42040933 427.71307681 1110.42332363 407.15592289 C1110.4235112 405.84416007 1110.42369877 404.53239724 1110.42389202 403.18088403 C1110.42425825 400.52215795 1110.42462195 397.86343187 1110.42498314 395.20470578 C1110.42516595 393.88507035 1110.42534876 392.56543493 1110.42553711 391.20581055 C1110.42562513 390.5453871 1110.42571315 389.88496366 1110.42580384 389.20452738 C1110.42871256 368.43017376 1110.45085281 347.65591298 1110.48706055 326.8815918 C1110.52782165 303.49468378 1110.55146282 280.10783837 1110.55178314 256.72089285 C1110.55236714 244.3541876 1110.56082392 231.98760216 1110.58978081 219.62092781 C1110.61430253 209.10101944 1110.62157127 198.5812747 1110.60653328 188.06134547 C1110.59937079 182.69846464 1110.60019445 177.33590698 1110.62294388 171.97306252 C1110.64359563 167.05763571 1110.64087577 162.14277932 1110.62006903 157.22735827 C1110.61658629 155.45587351 1110.62143221 153.68434705 1110.63577347 151.91291691 C1110.74411921 137.60018436 1108.91958541 125.39116462 1099.12890625 114.1328125 C1096.03842841 111.03666406 1092.80019005 108.19447594 1089 106 C1088.34 106 1087.68 106 1087 106 C1087 105.34 1087 104.68 1087 104 C1075.00003912 98.95959464 1061.81114175 99.41703598 1049 99 C1049 98.34 1049 97.68 1049 97 C1047.9275 96.505 1046.855 96.01 1045.75 95.5 C1045.14671875 95.2215625 1044.5434375 94.943125 1043.921875 94.65625 C1041.70757164 93.78457076 1041.70757164 93.78457076 1038 94 C1038 93.34 1038 92.68 1038 92 C1036.948125 91.443125 1035.89625 90.88625 1034.8125 90.3125 C1031.31694261 88.33828844 1028.799824 85.87981897 1026 83 C1025.34 83 1024.68 83 1024 83 C1023.8453125 82.195625 1023.8453125 82.195625 1023.6875 81.375 C1022.81907303 78.37497956 1021.44379704 75.7620465 1020 73 C1019.34 73 1018.68 73 1018 73 C1016.35266241 65.01920915 1015.49122453 57.13105861 1015 49 C1014.34 49 1013.68 49 1013 49 C1013.04125 47.72125 1013.0825 46.4425 1013.125 45.125 C1013.06411527 35.41388567 1011.02312131 28.6527537 1005 21 C1004.38382813 20.15050781 1003.76765625 19.30101562 1003.1328125 18.42578125 C996.31378668 9.81836941 986.78127658 5.63400956 976 4 C972.63884153 3.85470525 969.28067383 3.86595123 965.91682434 3.87415886 C964.8874387 3.87270542 963.85805305 3.87125198 962.79747391 3.86975449 C959.32566131 3.86608624 955.8538924 3.86958482 952.38208008 3.87301636 C949.8766029 3.87186485 947.37112588 3.87027712 944.86564922 3.86828911 C939.40629323 3.86497572 933.94695076 3.86478958 928.4875946 3.86733627 C920.36858716 3.87111334 912.24958807 3.86918771 904.13058068 3.86612797 C889.62685359 3.86085582 875.12313089 3.86132144 860.61940338 3.86420688 C847.91703464 3.8667215 835.21466752 3.86737959 822.51229858 3.86618423 C821.67001837 3.86610785 820.82773815 3.86603146 819.95993429 3.86595276 C816.54074902 3.86564142 813.12156375 3.86532302 809.70237848 3.864993 C777.60347228 3.86193176 745.50456888 3.8647102 713.40566312 3.8700899 C684.91366974 3.87482883 656.42168084 3.87441693 627.9296875 3.86962891 C595.91399409 3.86426671 563.89830316 3.86215576 531.88260937 3.86524117 C528.46465747 3.86556187 525.04670556 3.86587471 521.62875366 3.86618423 C520.36639355 3.86630285 520.36639355 3.86630285 519.07853121 3.86642386 C506.39802607 3.8675589 493.71752272 3.86623546 481.03701782 3.86370468 C466.59880674 3.86083746 452.16060075 3.86157683 437.72239029 3.86698543 C429.65281001 3.86990905 421.58324076 3.87013188 413.51366078 3.86633925 C407.46953502 3.86381338 401.42542334 3.86657815 395.38129842 3.87131383 C392.94973116 3.87242321 390.51816242 3.87188002 388.08659613 3.86943804 C376.87541564 3.85905018 365.67749641 3.91700923 354.47502136 4.39465523 Z " fill="#FEFDFD" transform="translate(0,0)"/>
<path d="M0 0 C58.38507011 -0.01711215 116.77014047 -0.03303357 175.1552124 -0.04234314 C176.01882929 -0.0424812 176.88244617 -0.04261925 177.77223327 -0.04276149 C196.53931227 -0.04575415 215.3063913 -0.04852437 234.07347037 -0.05106533 C243.27635655 -0.05231271 252.47924273 -0.05360925 261.68212891 -0.05493164 C262.59794444 -0.0550624 263.51375998 -0.05519316 264.4573275 -0.05532788 C294.16097858 -0.05959199 323.86462776 -0.06710536 353.56827769 -0.07629722 C384.08337486 -0.08572307 414.59847098 -0.09188388 445.11356958 -0.09391499 C449.42002 -0.09420316 453.72647042 -0.0945288 458.03292084 -0.09487724 C458.88052239 -0.09494467 459.72812394 -0.09501209 460.60141039 -0.09508156 C474.26544963 -0.09626494 487.92948563 -0.1009075 501.59352355 -0.10683203 C515.31837521 -0.11270953 529.04322364 -0.11497043 542.76807651 -0.11350138 C550.93007803 -0.1127387 559.09206778 -0.1147872 567.25406719 -0.12079754 C573.33699632 -0.12497232 579.4199127 -0.12397037 585.50284299 -0.12089889 C587.97261551 -0.12047386 590.442389 -0.12176404 592.91215959 -0.12488318 C596.25291321 -0.12885918 599.59360791 -0.12675575 602.9343605 -0.12304783 C603.9073162 -0.12567484 604.88027191 -0.12830186 605.88271111 -0.13100848 C606.77038503 -0.12876118 607.65805895 -0.12651389 608.57263207 -0.1241985 C609.33693713 -0.12435448 610.10124219 -0.12451046 610.88870801 -0.12467116 C613.03887133 0.00229534 614.93293188 0.40956604 617 1 C617 1.66 617 2.32 617 3 C615.71028764 2.99962028 614.42057528 2.99924056 613.09178072 2.99884933 C556.21051542 2.98216832 499.32924987 2.96674224 442.44798279 2.95765686 C441.58585536 2.9575188 440.72372794 2.95738075 439.83547544 2.95723851 C421.09589009 2.9542451 402.3563047 2.95147499 383.61671928 2.94893467 C374.425876 2.94768741 365.23503272 2.94639085 356.04418945 2.94506836 C354.6723428 2.94487222 354.6723428 2.94487222 353.27278207 2.94467212 C323.66741455 2.94041623 294.06204895 2.93290901 264.4566826 2.92370278 C234.01509156 2.91425378 203.57350159 2.90811076 173.13190911 2.90608501 C168.82516716 2.90579689 164.51842522 2.90547125 160.21168327 2.90512276 C159.36411445 2.90505533 158.51654563 2.90498791 157.64329291 2.90491844 C144.039191 2.90374003 130.43509239 2.89911091 116.83099182 2.89316797 C103.13042142 2.88725737 89.42985426 2.88503784 75.72928263 2.88649862 C67.60502348 2.88725505 59.48077627 2.88526889 51.3565193 2.87920246 C45.26437647 2.87496725 39.1722449 2.87606215 33.0801016 2.87910111 C30.63418143 2.87951984 28.18826022 2.87828466 25.74234206 2.87511682 C9.80389684 2.85569409 -6.07930126 3.23769072 -22 4 C-18.84685215 1.89790143 -18.13896919 1.7565239 -14.55078125 1.8046875 C-13.27944336 1.81435547 -13.27944336 1.81435547 -11.98242188 1.82421875 C-10.66081055 1.84935547 -10.66081055 1.84935547 -9.3125 1.875 C-7.97348633 1.88853516 -7.97348633 1.88853516 -6.60742188 1.90234375 C-4.40467686 1.92590252 -2.20247412 1.95879671 0 2 C0 1.34 0 0.68 0 0 Z " fill="#FFBEBE" transform="translate(363,2)"/>
<path d="M0 0 C0.66 0 1.32 0 2 0 C1.97021844 0.54979491 1.94043688 1.09958982 1.90975285 1.66604519 C0.86809584 21.73385796 0.8667725 41.77475138 0.89860606 61.86279416 C0.90495386 66.56054104 0.90545227 71.25828892 0.90663147 75.95603943 C0.90971169 84.80920475 0.91787938 93.66235738 0.92798096 102.51551718 C0.93924626 112.61263826 0.94467852 122.70976002 0.94967639 132.80688584 C0.96006565 153.53793091 0.9775994 174.26896465 1 195 C-1.79319248 192.20680752 -1.39843658 190.25990442 -1.61592102 186.34790039 C-1.65350975 185.67872872 -1.69109849 185.00955706 -1.72982627 184.32010746 C-2.10741339 177.02772913 -2.14825519 169.73432182 -2.14526367 162.43359375 C-2.14826618 160.94162412 -2.15167116 159.44965526 -2.15544128 157.95768738 C-2.16417667 153.95095652 -2.16661498 149.94424709 -2.16725707 145.93750763 C-2.16797381 143.41974167 -2.17011979 140.90198095 -2.17275429 138.38421631 C-2.18197464 129.5590379 -2.18609353 120.73387447 -2.18530273 111.90869141 C-2.18470354 103.75008956 -2.1952329 95.59155416 -2.2110464 87.43296909 C-2.22423027 80.37333912 -2.2294821 73.31373056 -2.22884732 66.2540884 C-2.22859541 62.06226185 -2.23127321 57.87049443 -2.24202538 53.67868042 C-2.28510209 35.68615938 -2.03477021 17.90649847 0 0 Z " fill="#FFCFCF" transform="translate(20,308)"/>
<path d="M0 0 C0.33 0 0.66 0 1 0 C1.12587776 7.42678804 1.12587776 7.42678804 0.52734375 10.15234375 C-0.25373875 14.37018926 -0.3307845 18.59447457 -0.5 22.875 C-0.56969459 24.62252731 -0.64255388 26.3699316 -0.71875 28.1171875 C-0.74904297 28.88659668 -0.77933594 29.65600586 -0.81054688 30.44873047 C-1 33 -1 33 -1.50099182 36.10079956 C-2.05307725 40.41474038 -2.15949121 44.59611011 -2.17358398 48.93847656 C-2.180271 49.80630768 -2.18695801 50.67413879 -2.19384766 51.56826782 C-2.20784046 53.44462974 -2.21975258 55.32100811 -2.22979546 57.19739532 C-2.2463432 60.18567272 -2.26959194 63.17383124 -2.29469299 66.16204834 C-2.36504442 74.6561477 -2.42510572 83.15029834 -2.47680664 91.64453125 C-2.50897756 96.85282153 -2.55035143 102.06097772 -2.59700203 107.26915741 C-2.61280829 109.23510018 -2.62522557 111.20107372 -2.63390923 113.16706085 C-2.67812564 123.04448626 -2.91559315 132.83684141 -3.89868164 142.67089844 C-3.97570281 143.46840641 -4.05272398 144.26591438 -4.13207912 145.08758926 C-4.54097323 148.75352646 -4.91993603 150.87990405 -7 154 C-6.93402115 153.23780655 -6.8680423 152.4756131 -6.80006409 151.69032288 C-6.09059422 143.06636399 -5.70306709 134.45706383 -5.46484375 125.80859375 C-5.44418287 125.09032347 -5.423522 124.37205318 -5.40223503 123.63201714 C-5.04934641 111.2260119 -4.87130354 98.82039558 -4.75390625 86.41015625 C-4.74551098 85.53835094 -4.73711571 84.66654564 -4.72846603 83.76832199 C-4.65172281 75.71223083 -4.58036435 67.65610875 -4.52319336 59.59985352 C-4.49099697 55.11903512 -4.4496986 50.63837201 -4.40299797 46.15768242 C-4.38730752 44.49038934 -4.37484112 42.8230618 -4.36609077 41.15571785 C-4.31873896 32.29547339 -3.99147282 23.53211747 -3.10131836 14.71264648 C-3.02429719 13.92843102 -2.94727602 13.14421556 -2.86792088 12.336236 C-2.38721498 7.98664639 -1.56290151 4.12132197 0 0 Z " fill="#FFD3D3" transform="translate(293,49)"/>
<path d="M0 0 C0.33 0 0.66 0 1 0 C1.12587776 7.42678804 1.12587776 7.42678804 0.52734375 10.15234375 C-0.25373875 14.37018926 -0.3307845 18.59447457 -0.5 22.875 C-0.73038085 28.6515864 -1.06661839 34.2908158 -2 40 C-2.33 40 -2.66 40 -3 40 C-3.02926019 35.83334831 -3.04688594 31.66672341 -3.0625 27.5 C-3.07087891 26.32695313 -3.07925781 25.15390625 -3.08789062 23.9453125 C-3.11141659 15.57007044 -2.9751219 7.93365839 0 0 Z " fill="#FFB9B9" transform="translate(293,49)"/>
<path d="M0 0 C5.5037029 5.5037029 5.62055977 13.79578025 6.125 21.125 C6.27146197 23.0444226 6.41984561 24.9636997 6.5703125 26.8828125 C6.63895508 27.77000977 6.70759766 28.65720703 6.77832031 29.57128906 C7.03756763 32.41158897 7.46250803 35.19938396 8 38 C2.76789563 32.76789563 3.95137497 24.29867075 3.9375 17.4375 C3.95339537 15.29162441 3.97252941 13.14575863 4 11 C3.34 11 2.68 11 2 11 C0.80712589 7.12315913 0 4.08378077 0 0 Z " fill="#FFB5B5" transform="translate(254,587)"/>
<path d="M0 0 C0.33 0 0.66 0 1 0 C2.18798478 6.41511782 1.79034653 11.70926184 0 18 C-0.33 18.33 -0.66 18.66 -1 19 C-1.36760731 21.32817964 -1.70241581 23.6618385 -2 26 C-2.33 26 -2.66 26 -3 26 C-2.22095672 8.14350797 -2.22095672 8.14350797 0 0 Z " fill="#FF6868" transform="translate(24,295)"/>
<path d="M0 0 C0.66 0.33 1.32 0.66 2 1 C-1.33333333 4.33333333 -4.66666667 7.66666667 -8 11 C-8.99 10.67 -9.98 10.34 -11 10 C-9.73232923 8.70522938 -8.46073776 7.41429661 -7.1875 6.125 C-6.47980469 5.40570312 -5.77210938 4.68640625 -5.04296875 3.9453125 C-3 2 -3 2 0 0 Z " fill="#FF7B7B" transform="translate(317,14)"/>
<path d="M0 0 C0.66 0.33 1.32 0.66 2 1 C0.55424733 4.3734229 -1.2049086 6.61595146 -4 9 C-6.25 9.75 -6.25 9.75 -8 10 C-6.34908222 5.70761377 -3.26245434 3.1206085 0 0 Z " fill="#FF7777" transform="translate(42,266)"/>
<path d="M0 0 C0.8971875 0.309375 0.8971875 0.309375 1.8125 0.625 C0.6059375 1.0271875 0.6059375 1.0271875 -0.625 1.4375 C-1.470625 1.829375 -2.31625 2.22125 -3.1875 2.625 C-3.5175 3.615 -3.8475 4.605 -4.1875 5.625 C-5.8375 5.625 -7.4875 5.625 -9.1875 5.625 C-3.21691176 -0.55147059 -3.21691176 -0.55147059 0 0 Z " fill="#FF8686" transform="translate(53.1875,260.375)"/>
<path d="M0 0 C0.33 0 0.66 0 1 0 C1.44041451 5.28497409 1.44041451 5.28497409 1 8 C-1.5 10.5 -1.5 10.5 -4 12 C-2.66666667 8 -1.33333333 4 0 0 Z " fill="#FF6565" transform="translate(284,210)"/>
<path d="M0 0 C1.2077558 3.62326739 0.54311128 4.64146369 -1 8 C-1.66 8 -2.32 8 -3 8 C-1.125 1.125 -1.125 1.125 0 0 Z " fill="#FF7777" transform="translate(302,29)"/>
<path d="M0 0 C4.05606165 0.46800711 7.46588679 0.87953208 11 3 C11 3.66 11 4.32 11 5 C10.29875 4.71125 9.5975 4.4225 8.875 4.125 C5.94547497 2.97866412 2.99078347 1.97374346 0 1 C0 0.67 0 0.34 0 0 Z " fill="#FFC5C5" transform="translate(981,5)"/>
</svg>
