<?xml version="1.0" encoding="UTF-8"?>
<svg version="1.1" xmlns="http://www.w3.org/2000/svg" width="478" height="376">
<path d="M0 0 C3.12943019 -0.00885098 6.25841519 -0.02975285 9.38769531 -0.06152344 C38.81604682 -0.35333152 68.2448313 1.225661 95.04833984 14.60375977 C98.12763063 16.13281127 101.23167542 17.50754392 104.39208984 18.85766602 C112.33418541 22.51598641 117.71264697 26.19038504 121.37255859 34.33032227 C123.07597058 38.9977941 124.29762951 43.77484387 125.49365234 48.59204102 C126.3213747 51.78180035 127.28492502 54.8201045 128.39208984 57.92016602 C130.59639841 64.31698303 132.06640145 70.84994276 133.59667969 77.43188477 C135.75118068 86.66593361 138.07996041 95.79370883 141.45458984 104.67016602 C143.12785505 109.09748252 144.30595437 113.57076459 145.39208984 118.17016602 C146.8363505 124.22291185 148.6976103 129.8929892 151.02880859 135.67407227 C152.82618989 140.23892833 154.45936774 144.8524826 156.07958984 149.48266602 C156.36874268 150.3021875 156.65789551 151.12170898 156.95581055 151.96606445 C158.40017998 156.10136506 159.75212414 160.24310118 160.98193359 164.44750977 C162.22302022 168.64927565 163.70892218 172.62520605 165.39208984 176.67016602 C166.44546231 179.20387791 167.46217137 181.73810051 168.45458984 184.29516602 C168.8081958 185.14667236 169.16180176 185.99817871 169.52612305 186.87548828 C172.78381318 195.41545031 172.95993752 203.48100558 172.76708984 212.48266602 C172.74937688 213.98476653 172.73303686 215.48688381 172.71801758 216.98901367 C172.54396287 231.51717029 172.35708492 246.12613588 170.94287109 260.59204102 C170.44363041 266.33539479 170.32479207 272.05759042 170.24365234 277.81860352 C170.22932663 278.77407074 170.21500092 279.72953796 170.20024109 280.71395874 C170.14274883 284.69996499 170.08823548 288.68584488 170.05322266 292.67211914 C169.9428725 304.29313164 169.51261706 315.0246891 166.45458984 326.29516602 C166.04903767 327.99523322 165.64522805 329.69571764 165.24365234 331.39672852 C158.73987281 357.09492519 158.73987281 357.09492519 151.45458984 363.29516602 C147.55931542 365.04153706 143.56281826 366.15925033 139.45458984 367.29516602 C138.39755859 367.64579102 137.34052734 367.99641602 136.25146484 368.35766602 C126.97940292 371.23666241 117.92146068 372.0209424 108.25683594 372.52416992 C102.55973324 372.8489932 97.26988109 373.51341967 91.71240234 374.82641602 C81.77282532 376.92254764 71.81003602 376.78036157 61.68701172 376.74121094 C58.35629704 376.73273399 55.02732238 376.76150044 51.69677734 376.79321289 C38.63154403 376.83516295 26.40886741 375.71887322 13.66917419 372.79963684 C10.21322658 372.0123899 6.73992315 371.31634692 3.26708984 370.60766602 C-2.27324521 369.43124849 -2.27324521 369.43124849 -4.54541016 368.29516602 C-12.14256247 366.82400793 -19.75291776 366.03391243 -27.47509766 365.63891602 C-30.54541016 365.29516602 -30.54541016 365.29516602 -33.78564453 364.30664062 C-37.55868332 363.29159519 -40.87606643 362.9407966 -44.77197266 362.76782227 C-46.14828264 362.69701216 -47.52458447 362.62604342 -48.90087891 362.55493164 C-51.0262196 362.45482678 -53.15165277 362.35848108 -55.27734375 362.26611328 C-63.66042151 361.8895106 -71.62280906 361.11043104 -79.7890625 358.99951172 C-82.36750943 358.34062603 -84.92037842 357.84917696 -87.54541016 357.42016602 C-93.84089733 356.18355246 -99.65077664 353.77673395 -105.54541016 351.29516602 C-106.42455078 350.9484082 -107.30369141 350.60165039 -108.20947266 350.24438477 C-115.87614702 346.89782056 -120.92238152 341.30688326 -126.54541016 335.29516602 C-129.21423905 332.56658722 -131.84503854 329.95101061 -134.85791016 327.60766602 C-135.74478516 326.84454102 -136.63166016 326.08141602 -137.54541016 325.29516602 C-137.54541016 324.63516602 -137.54541016 323.97516602 -137.54541016 323.29516602 C-138.33238281 322.97418945 -138.33238281 322.97418945 -139.13525391 322.64672852 C-142.50122788 320.7591645 -145.23548973 318.21811658 -148.10791016 315.67016602 C-153.41222502 311.02312191 -158.80365219 306.79890273 -164.63134766 302.81860352 C-165.57880859 302.06450195 -165.57880859 302.06450195 -166.54541016 301.29516602 C-166.54541016 300.63516602 -166.54541016 299.97516602 -166.54541016 299.29516602 C-167.07908203 299.20493164 -167.61275391 299.11469727 -168.16259766 299.02172852 C-171.35116654 298.04947636 -173.84353087 296.43441116 -176.67041016 294.67016602 C-177.53037598 294.13383545 -177.53037598 294.13383545 -178.40771484 293.58666992 C-182.7711087 290.84164112 -187.00993708 287.94137662 -191.20947266 284.95141602 C-194.23197235 282.80837276 -197.29925176 280.74176819 -200.39697266 278.70922852 C-201.80032238 277.78556924 -203.1917557 276.8434728 -204.56884766 275.88110352 C-208.71603511 273.07806377 -212.21881175 271.71869619 -217.12744141 270.81469727 C-241.55520293 265.56608292 -262.67714788 250.29332877 -278.95166016 232.07397461 C-280.39529644 230.46271022 -281.85529612 228.86935828 -283.32666016 227.28344727 C-286.87549133 223.42927834 -289.92509845 219.84510944 -292.54541016 215.29516602 C-293.00560547 214.5977832 -293.46580078 213.90040039 -293.93994141 213.18188477 C-302.73515771 199.54081926 -308.29166982 182.59629763 -305.54541016 166.29516602 C-303.56823399 160.41823411 -300.09695541 155.32755301 -296.54541016 150.29516602 C-295.4490625 148.72508789 -295.4490625 148.72508789 -294.33056641 147.12329102 C-292.13515649 144.12197112 -289.86230005 141.20360226 -287.54541016 138.29516602 C-286.16305436 136.5433745 -284.78303383 134.78976179 -283.40332031 133.03588867 C-282.46117337 131.8398252 -281.5168566 130.64546753 -280.5703125 129.45288086 C-277.690552 125.81139686 -274.96253079 122.0972316 -272.29541016 118.29516602 C-269.13339509 113.91204757 -265.93327137 110.44618045 -261.54541016 107.29516602 C-261.00013672 106.89168945 -260.45486328 106.48821289 -259.89306641 106.07250977 C-254.93021323 102.69516329 -249.47336802 100.48995784 -243.96704102 98.16918945 C-238.10703583 95.65244867 -232.64586848 92.62979642 -227.13867188 89.42553711 C-223.55313096 87.35924797 -220.07273841 85.5908574 -216.17041016 84.17016602 C-211.64411936 82.5010023 -208.14895667 80.03623026 -204.27197266 77.19750977 C-200.78620781 74.76546467 -197.13576261 72.70890307 -193.43017578 70.63256836 C-187.99253543 67.57570918 -182.63949575 64.38746275 -177.29541016 61.17016602 C-176.48023926 60.67943604 -175.66506836 60.18870605 -174.82519531 59.68310547 C-173.62709229 58.96127075 -173.62709229 58.96127075 -172.40478516 58.22485352 C-171.61072266 57.7464502 -170.81666016 57.26804688 -169.99853516 56.77514648 C-168.29944167 55.75007635 -166.60160803 54.72291617 -164.90478516 53.6940918 C-160.67764984 51.13941125 -156.47209515 48.61913616 -152.04541016 46.42016602 C-151.23072266 46.01024414 -150.41603516 45.60032227 -149.57666016 45.17797852 C-147.54541016 44.29516602 -147.54541016 44.29516602 -145.54541016 44.29516602 C-145.28244141 43.69317383 -145.01947266 43.09118164 -144.74853516 42.47094727 C-143.47961549 40.17618021 -142.34410099 39.0837825 -140.29541016 37.48266602 C-137.78743324 35.43302574 -135.73448904 33.40098277 -133.73291016 30.85766602 C-130.66210664 27.12647465 -127.02002147 24.625122 -123.01025391 21.97094727 C-120.49116492 20.31618834 -120.49116492 20.31618834 -118.11181641 18.27172852 C-114.52026132 15.50562978 -110.58815439 13.83514711 -106.48291016 11.95532227 C-103.40930216 10.46930369 -103.40930216 10.46930369 -101.52587891 7.67797852 C-96.60861508 3.74674532 -90.9788689 4.32765737 -84.85791016 4.10766602 C-82.21843417 3.97260416 -79.57910748 3.83459157 -76.93994141 3.69360352 C-75.0249585 3.59837402 -75.0249585 3.59837402 -73.07128906 3.5012207 C-69.49836365 3.29241659 -65.96583216 2.9707305 -62.4152832 2.52807617 C-41.71211948 -0.05262107 -20.83276364 0.05254051 0 0 Z " fill="#FE5252" transform="translate(305.54541015625,-0.295166015625)"/>
<path d="M0 0 C6.6 0 13.2 0 20 0 C20 22.77 20 45.54 20 69 C13.4 69 6.8 69 0 69 C-0.495 65.04 -0.495 65.04 -1 61 C-1.721875 61.94875 -2.44375 62.8975 -3.1875 63.875 C-5.43209268 66.8250361 -7.44591234 67.93276688 -11 69 C-17.15117393 69.61871457 -22.96014424 69.94958803 -28.625 67.3125 C-34.0899913 61.99132426 -37.53500254 56.8013542 -38.46875 49.16796875 C-38.5423103 39.79822512 -37.94901315 32.17203735 -31.1796875 25.09765625 C-25.82482966 20.33653788 -22.2902109 19.6592992 -15.12109375 19.7109375 C-9.0448636 20.27369223 -5.23972112 22.76027888 -1 27 C-0.67 18.09 -0.34 9.18 0 0 Z " fill="#FFF8F8" transform="translate(394,101)"/>
<path d="M0 0 C6.6 0 13.2 0 20 0 C20.33 8.91 20.66 17.82 21 27 C23.97 24.525 23.97 24.525 27 22 C31.87399815 18.89235389 37.4296558 19.30638846 43 20 C49.30099812 22.40283562 54.06927045 27.19994218 57.10546875 33.17578125 C59.5620772 40.93179832 59.3448819 51.35279197 55.875 58.75 C52.7122654 64.01823781 48.67755147 67.56067676 43 70 C37.09091641 70.8552621 31.14165766 70.12595539 26 67 C23.70550268 64.79845673 21.92693759 62.55319231 20 60 C19.01 62.97 18.02 65.94 17 69 C11.39 69 5.78 69 0 69 C0 46.23 0 23.46 0 0 Z " fill="#FFF7F7" transform="translate(153,180)"/>
<path d="M0 0 C4.7795543 3.54390651 7.73975442 7.47863763 10 13 C10.328125 16.76171875 10.328125 16.76171875 10.25 20.6875 C10.23453125 21.99074219 10.2190625 23.29398438 10.203125 24.63671875 C10 28 10 28 9 31 C8.34 31 7.68 31 7 31 C6.7215625 32.051875 6.7215625 32.051875 6.4375 33.125 C3.43120953 39.13758094 -1.78662459 42.32737149 -8.0078125 44.45703125 C-19.24454846 47.51959262 -29.94791729 46.59257044 -40.3125 41.3125 C-45.43971945 36.90070652 -48.73917022 31.3162643 -49.2734375 24.5234375 C-49.55595085 16.37780011 -49.68082099 9.45158565 -44 3 C-33.11748556 -7.22450194 -12.63494415 -6.84978689 0 0 Z " fill="#FFF9F9" transform="translate(293,46)"/>
<path d="M0 0 C5.1717421 3.6762986 8.55234952 7.0484213 11 13 C12.3074691 21.46307516 11.31949982 28.44042481 6.78125 35.71875 C2.44072178 41.2776721 -3.15328068 44.19860014 -10 45.625 C-21.05033332 46.89819058 -31.76566911 46.87904157 -40.875 39.75 C-41.57625 38.8425 -42.2775 37.935 -43 37 C-43.46277344 36.505 -43.92554688 36.01 -44.40234375 35.5 C-49.40280398 29.29444271 -48.98295879 21.47990192 -48.29101562 13.89648438 C-47.65402429 9.74535294 -45.89486781 6.94847648 -43 4 C-42.0925 3.071875 -41.185 2.14375 -40.25 1.1875 C-29.27927534 -6.1966416 -11.39540595 -7.18268656 0 0 Z " fill="#FFFAFA" transform="translate(278,125)"/>
<path d="M0 0 C6.30624234 6.90683685 7.24287964 14.3632332 7.375 23.4375 C7.40464844 24.44619141 7.43429687 25.45488281 7.46484375 26.49414062 C7.53480668 28.9545037 7.58786189 31.41396011 7.625 33.875 C8.615 34.37 8.615 34.37 9.625 34.875 C9.625 37.845 9.625 40.815 9.625 43.875 C6.72690611 44.03750994 3.83795149 44.15607636 0.9375 44.25 C0.12087891 44.30027344 -0.69574219 44.35054687 -1.53710938 44.40234375 C-7.4644763 44.54632837 -7.4644763 44.54632837 -10.06176758 42.63134766 C-12.44724723 39.91101186 -13.35262968 38.11659948 -13.6875 34.5 C-13.584375 33.63375 -13.48125 32.7675 -13.375 31.875 C-14.035 31.875 -14.695 31.875 -15.375 31.875 C-15.601875 32.596875 -15.82875 33.31875 -16.0625 34.0625 C-18.14403697 38.52293636 -21.32815756 41.17710504 -25.375 43.875 C-28.19290092 44.12406421 -30.86974565 44.24521197 -33.6875 44.25 C-34.43451172 44.27449219 -35.18152344 44.29898438 -35.95117188 44.32421875 C-41.22246119 44.35198674 -44.20125597 43.3583979 -48.375 39.875 C-51.62515553 35.10810522 -51.90718983 31.46299317 -51.375 25.875 C-49.93261177 21.90843238 -48.00542085 20.49359897 -44.375 18.625 C-42.05277327 17.55184977 -39.8083984 16.6861328 -37.375 15.875 C-41.005 13.895 -44.635 11.915 -48.375 9.875 C-46.97755412 4.28521647 -44.01269305 2.104153 -39.375 -1.125 C-27.35532509 -7.70035645 -11.5708723 -7.28536404 0 0 Z " fill="#FFF8F8" transform="translate(314.375,205.125)"/>
<path d="M0 0 C6.93 0 13.86 0 21 0 C24.33333333 10 27.66666667 20 31 30 C32.98 23.4 34.96 16.8 37 10 C37.66 10 38.32 10 39 10 C39.66 6.7 40.32 3.4 41 0 C47.6 0 54.2 0 61 0 C54.95960699 17.43477074 54.95960699 17.43477074 52.1328125 23.4921875 C50.15211974 27.87703147 48.36913959 32.34543999 46.54907227 36.79882812 C45.97575734 38.20001305 45.39994168 39.60017758 44.8215332 40.99926758 C44.05570167 42.86434615 43.31211201 44.73851473 42.5703125 46.61328125 C38.06088296 56.33884197 30.99024193 64.77335918 21 69 C15.83259639 70.50715939 10.35421567 70.09523309 5 70 C2.73383385 63.74538144 1.16204993 57.54849313 0 51 C0.95261719 51.01160156 1.90523437 51.02320313 2.88671875 51.03515625 C4.14097656 51.04417969 5.39523438 51.05320313 6.6875 51.0625 C7.92886719 51.07410156 9.17023438 51.08570313 10.44921875 51.09765625 C13.46235454 51.01478673 16.08275339 50.70839449 19 50 C15.72544098 39.78524102 12.41151802 29.6061533 8.3125 19.6875 C8.03978271 19.0262915 7.76706543 18.36508301 7.48608398 17.68383789 C5.78438992 13.64724934 3.89605123 9.74722271 1.85620117 5.87036133 C1 4 1 4 0 0 Z " fill="#FFFAFA" transform="translate(184,43)"/>
<path d="M0 0 C3.87517239 3.14682674 5.98401885 6.27102484 8.125 10.8125 C8.125 14.4425 8.125 18.0725 8.125 21.8125 C-4.745 21.8125 -17.615 21.8125 -30.875 21.8125 C-28.70833333 27.64583333 -28.70833333 27.64583333 -25.875 28.8125 C-19.87661737 29.31478003 -14.80688955 29.66553871 -9.875 25.8125 C-6.27816664 24.61355555 -5.77071431 25.06888712 -2.5 26.6875 C0.71409726 28.20803541 3.56508379 29.35315597 7.125 29.8125 C6.64777765 34.10750117 4.29186508 36.05870428 1.125 38.8125 C-7.79056599 44.93102568 -18.26419831 45.84428264 -28.875 44.8125 C-37.21270079 42.86738695 -41.88768533 39.738685 -47.0625 32.9375 C-50.64155702 26.76671203 -51.84414592 20.68466087 -50.4453125 13.65234375 C-48.40084403 6.29478128 -44.23604512 0.89634797 -37.75 -3.125 C-26.17192782 -7.40385276 -10.54439447 -6.69772696 0 0 Z " fill="#FFF7F7" transform="translate(153.875,126.1875)"/>
<path d="M0 0 C5.40837306 2.05861278 8.31004576 4.8816344 11.14454651 9.96070862 C12.6385843 13.52230305 12.49234792 16.96762197 12.390625 20.77734375 C12.38496521 21.58869278 12.37930542 22.40004181 12.37347412 23.23597717 C12.3512492 25.8037755 12.30108235 28.37013015 12.25 30.9375 C12.2299169 32.68813076 12.21166931 34.43878359 12.1953125 36.18945312 C12.15484662 40.46062641 12.0765387 44.72871537 12 49 C5.73 49 -0.54 49 -7 49 C-7.03738281 47.09734375 -7.07476562 45.1946875 -7.11328125 43.234375 C-7.17893419 40.7395634 -7.24538175 38.24477261 -7.3125 35.75 C-7.34633789 33.86861328 -7.34633789 33.86861328 -7.38085938 31.94921875 C-7.41630859 30.74394531 -7.45175781 29.53867188 -7.48828125 28.296875 C-7.51446533 27.18666992 -7.54064941 26.07646484 -7.56762695 24.93261719 C-8.04312847 21.70747643 -8.69279757 20.27692061 -11 18 C-14.0784331 17.55106184 -16.02858335 17.33916163 -18.65551758 19.1262207 C-20.618249 21.86164174 -20.43613781 24.07729109 -20.51171875 27.41796875 C-20.54716797 28.67158203 -20.58261719 29.92519531 -20.61914062 31.21679688 C-20.64169922 32.52712891 -20.66425781 33.83746094 -20.6875 35.1875 C-20.72067666 36.52282013 -20.75516666 37.85810832 -20.79101562 39.19335938 C-20.87361509 42.46193825 -20.93848004 45.73095644 -21 49 C-27.93 49 -34.86 49 -42 49 C-42 33.16 -42 17.32 -42 1 C-36.06 1 -30.12 1 -24 1 C-23.67 4.96 -23.34 8.92 -23 13 C-22.01 13 -21.02 13 -20 13 C-20 11.96875 -20 10.9375 -20 9.875 C-19.47957771 6.42192777 -18.26653245 4.82127979 -15.625 2.5625 C-10.59423455 -0.79134363 -5.8632683 -1.12656683 0 0 Z " fill="#FFF8F8" transform="translate(402,200)"/>
<path d="M0 0 C0.99 0.66 1.98 1.32 3 2 C1.59155282 5.21524305 -0.10344786 7.32183868 -2.625 9.75 C-3.25664063 10.36359375 -3.88828125 10.9771875 -4.5390625 11.609375 C-5.02117187 12.06828125 -5.50328125 12.5271875 -6 13 C-6.60328125 12.79503906 -7.2065625 12.59007812 -7.828125 12.37890625 C-8.62734375 12.10949219 -9.4265625 11.84007812 -10.25 11.5625 C-11.03890625 11.29566406 -11.8278125 11.02882812 -12.640625 10.75390625 C-16.36902965 9.56254516 -19.57079408 8.86154382 -23.5 8.875 C-24.2528125 8.87242187 -25.005625 8.86984375 -25.78125 8.8671875 C-27.973535 8.99841583 -29.89319137 9.39668662 -32 10 C-32 11.32 -32 12.64 -32 14 C-31.31486328 13.98428955 -30.62972656 13.9685791 -29.92382812 13.95239258 C-26.78263797 13.88955817 -23.64158061 13.85085651 -20.5 13.8125 C-19.42234375 13.78736328 -18.3446875 13.76222656 -17.234375 13.73632812 C-9.62162283 13.66669929 -3.8618167 14.16676925 2.44921875 18.796875 C5.13177405 22.60786036 4.85035745 26.19708954 4.6875 30.7265625 C3.6839214 35.50496516 1.67940638 37.60946141 -2.1796875 40.4765625 C-13.41871589 46.54750581 -26.30194163 46.1295455 -38.375 43.25 C-39.37430542 43.01494751 -39.37430542 43.01494751 -40.39379883 42.77514648 C-45.00066114 41.56653283 -48.22376137 39.78249162 -52 37 C-51.39665691 33.29496359 -49.77525763 31.14031852 -47.4375 28.25 C-46.79683594 27.45078125 -46.15617187 26.6515625 -45.49609375 25.828125 C-45.00238281 25.22484375 -44.50867187 24.6215625 -44 24 C-43.10539062 24.3609375 -42.21078125 24.721875 -41.2890625 25.09375 C-32.62065917 28.42064253 -25.1861157 30.5355342 -16 28 C-16.495 26.02 -16.495 26.02 -17 24 C-17.93682617 24.02356567 -17.93682617 24.02356567 -18.89257812 24.04760742 C-21.76162417 24.11052044 -24.63052442 24.14916731 -27.5 24.1875 C-28.97339844 24.22520508 -28.97339844 24.22520508 -30.4765625 24.26367188 C-37.69726593 24.33587891 -43.65251606 23.74665349 -49.4375 19 C-52.39590414 15.2132427 -52.39467137 11.65712222 -52 7 C-48.84972458 0.57343814 -44.39139254 -1.81536478 -37.90234375 -4.08203125 C-25.52385605 -7.46230428 -11.22726864 -6.03419976 0 0 Z " fill="#FFF7F7" transform="translate(94,126)"/>
<path d="M0 0 C5.00230198 2.45567552 8.49851535 5.9970307 11 11 C11.08691001 13.84429357 11.11553802 16.66379176 11.09765625 19.5078125 C11.0962413 20.34843231 11.09482635 21.18905212 11.09336853 22.05514526 C11.08776237 24.74513275 11.07520886 27.43503759 11.0625 30.125 C11.05748579 31.94661338 11.05292275 33.76822807 11.04882812 35.58984375 C11.038641 40.05995344 11.01906685 44.52988399 11 49 C4.73 49 -1.54 49 -8 49 C-8.04898438 47.09734375 -8.09796875 45.1946875 -8.1484375 43.234375 C-8.22346927 40.73956858 -8.29901692 38.24477763 -8.375 35.75 C-8.4059375 34.49574219 -8.436875 33.24148437 -8.46875 31.94921875 C-8.52675781 30.14130859 -8.52675781 30.14130859 -8.5859375 28.296875 C-8.6173584 27.18666992 -8.6487793 26.07646484 -8.68115234 24.93261719 C-8.98789356 22.11134958 -9.54286225 20.4029991 -11 18 C-14.37436186 17.66619186 -14.37436186 17.66619186 -18 18 C-21.27045928 21.12331917 -21.40815469 23.90575903 -21.51171875 28.296875 C-21.54716797 29.50214844 -21.58261719 30.70742187 -21.61914062 31.94921875 C-21.64169922 33.20347656 -21.66425781 34.45773438 -21.6875 35.75 C-21.72166016 37.01972656 -21.75582031 38.28945312 -21.79101562 39.59765625 C-21.87348414 42.73145999 -21.93841854 45.86571624 -22 49 C-28.93 49 -35.86 49 -43 49 C-42.67 33.16 -42.34 17.32 -42 1 C-36.39 1 -30.78 1 -25 1 C-22.75 7.75 -22.75 7.75 -23 12 C-22.34 12 -21.68 12 -21 12 C-20.979375 11.29875 -20.95875 10.5975 -20.9375 9.875 C-19.55405081 5.63242249 -16.53279256 3.57820427 -13 1 C-9.05127576 -0.97436212 -4.30383233 -0.43829693 0 0 Z " fill="#FFFAFA" transform="translate(338,121)"/>
<path d="M0 0 C6.27 0 12.54 0 19 0 C19.04898437 1.97484375 19.09796875 3.9496875 19.1484375 5.984375 C19.22346811 8.57293092 19.29901581 11.16147189 19.375 13.75 C19.4059375 15.05195312 19.436875 16.35390625 19.46875 17.6953125 C19.50742187 18.94570313 19.54609375 20.19609375 19.5859375 21.484375 C19.63306885 23.21252441 19.63306885 23.21252441 19.68115234 24.97558594 C19.98401175 27.84834422 20.5088238 29.56179611 22 32 C24.64 32 27.28 32 30 32 C34.01526847 26.03630367 33.55499164 19.61386967 33.6875 12.625 C33.72166016 11.41199219 33.75582031 10.19898438 33.79101562 8.94921875 C33.8732175 5.96646506 33.9382923 2.98324805 34 0 C40.6 0 47.2 0 54 0 C54 15.51 54 31.02 54 47 C48.06 47 42.12 47 36 47 C35.01 44.03 34.02 41.06 33 38 C32.401875 38.928125 31.80375 39.85625 31.1875 40.8125 C27.22033898 46.59322034 27.22033898 46.59322034 23 48 C21.04524991 48.1447963 19.0848862 48.22067502 17.125 48.25 C15.58199219 48.28867188 15.58199219 48.28867188 14.0078125 48.328125 C9.35345205 47.82037659 6.83333209 45.92592454 3.75 42.5 C0.6405798 38.05797115 0.79367797 33.84229805 0.68359375 28.61328125 C0.66281265 27.79627243 0.64203156 26.97926361 0.62062073 26.13749695 C0.55526921 23.52924966 0.49630727 20.92090225 0.4375 18.3125 C0.39430108 16.54360946 0.35068635 14.77472903 0.30664062 13.00585938 C0.19882044 8.67067403 0.09964028 4.33541198 0 0 Z " fill="#FFFCFC" transform="translate(309,43)"/>
<path d="M0 0 C2.90467198 2.12321201 5.48003971 4.4368051 8 7 C8.66 7.66 9.32 8.32 10 9 C10 9.99 10 10.98 10 12 C7.41932437 12.69918305 4.83627153 13.38461049 2.25 14.0625 C1.52039063 14.26166016 0.79078125 14.46082031 0.0390625 14.66601562 C-4.62103487 15.87340449 -7.61525713 16.39795271 -11.8125 13.9375 C-15.01203457 12.5662709 -17.55530294 12.69783359 -21 13 C-23.31279611 14.15639806 -25.17409828 15.17409828 -27 17 C-27.38324397 23.77592119 -27.38324397 23.77592119 -25 30 C-21.63261553 31.62133326 -17.65647882 31.256595 -14 31 C-13.175 30.484375 -12.35 29.96875 -11.5 29.4375 C-6.59562292 26.61748318 -1.21803096 29.17930877 3.9375 30.5625 C5.62617455 31.03751074 7.31409158 31.51526322 9 32 C6.70345516 38.16874601 3.53689248 41.46396176 -2.4375 44.25 C-11.97046341 48.13206063 -23.22146197 48.33620709 -33 45 C-39.35509298 41.76014868 -43.2884818 36.50083269 -46.375 30.1875 C-48.18264011 20.96853543 -47.21696437 13.32036414 -42.375 5.3125 C-32.08168997 -4.70993345 -12.72841582 -6.65296508 0 0 Z " fill="#FFF9F9" transform="translate(214,124)"/>
<path d="M0 0 C5.94 0 11.88 0 18 0 C18.33 3.63 18.66 7.26 19 11 C21.39583333 10.05208333 21.39583333 10.05208333 22.6875 6.625 C24.50303823 3.39811272 26.24936659 1.71174428 29.8515625 0.421875 C34.19899769 -0.43180318 38.5945459 -0.2150945 43 0 C43.29530838 6.49678438 42.17293889 12.6221448 41 19 C39.96359375 18.88140625 38.9271875 18.7628125 37.859375 18.640625 C36.48969133 18.50928547 35.11989283 18.37913962 33.75 18.25 C33.06808594 18.16878906 32.38617188 18.08757812 31.68359375 18.00390625 C28.38729904 17.7158805 26.51103332 17.61968554 23.80859375 19.63085938 C21.52703959 22.61954749 21.46382785 24.34477964 21.390625 28.078125 C21.35839844 29.23828125 21.32617188 30.3984375 21.29296875 31.59375 C21.27169922 33.40359375 21.27169922 33.40359375 21.25 35.25 C21.20552734 37.08304688 21.20552734 37.08304688 21.16015625 38.953125 C21.08948587 41.96839445 21.04247603 44.98420161 21 48 C14.07 48 7.14 48 0 48 C0 32.16 0 16.32 0 0 Z " fill="#FFF8F8" transform="translate(219,201)"/>
<path d="M0 0 C5.94 0 11.88 0 18 0 C18.66 3.3 19.32 6.6 20 10 C20.53625 9.0925 21.0725 8.185 21.625 7.25 C24.00733796 3.78328752 26.10324646 1.809207 30 0 C34.06423694 -0.3222285 37.91049847 -0.18175562 42 0 C41.67 6.27 41.34 12.54 41 19 C38.69 18.67 36.38 18.34 34 18 C29.90539185 17.5041132 26.91275425 17.41578429 23.30859375 19.72265625 C19.32462657 24.00488836 20.2151355 30.33145969 20.1875 35.8125 C20.16236328 36.98232422 20.13722656 38.15214844 20.11132812 39.35742188 C20.05254244 42.23792046 20.02338822 45.11899656 20 48 C13.4 48 6.8 48 0 48 C0 32.16 0 16.32 0 0 Z " fill="#FFFBFB" transform="translate(371,43)"/>
<path d="M0 0 C6.93 0 13.86 0 21 0 C21 15.84 21 31.68 21 48 C14.07 48 7.14 48 0 48 C0 32.16 0 16.32 0 0 Z " fill="#FFF6F6" transform="translate(331,201)"/>
<path d="M0 0 C4.66200629 2.58573132 4.66200629 2.58573132 5.95703125 5.17578125 C6.34185182 9.25487931 6.39824982 11.46667998 4.20703125 14.98828125 C0.66700229 18.42997608 -0.9746852 19.09099684 -5.98046875 19.48828125 C-9.74085067 19.38324265 -12.07948566 18.61629674 -15.04296875 16.17578125 C-17.60867464 12.75484006 -17.48004929 9.32804641 -17.04296875 5.17578125 C-13.13945639 -1.01599697 -6.83996305 -2.7595262 0 0 Z " fill="#FF5656" transform="translate(265.04296875,136.82421875)"/>
<path d="M0 0 C2.31832399 1.64490607 3.86957053 3.30203737 4.546875 6.1015625 C4.74836063 10.53424641 3.87266247 13.61714955 1.078125 17.1640625 C-1.61294407 18.50959703 -3.79352922 18.37000364 -6.796875 18.4140625 C-8.37082031 18.45273438 -8.37082031 18.45273438 -9.9765625 18.4921875 C-13.27714685 18.12448314 -14.58851104 17.4865736 -16.921875 15.1640625 C-18.15546184 11.46330198 -18.49589132 8.01152325 -17.921875 4.1640625 C-13.8029139 -1.37523001 -6.30972494 -2.74447386 0 0 Z " fill="#FF5252" transform="translate(279.921875,57.8359375)"/>
<path d="M0 0 C3.17144437 1.2709987 3.82096359 2.11424908 6 5 C6.78303693 8.18396633 6.74386912 10.81116573 6 14 C4.125 17.0625 4.125 17.0625 1 19 C-3.6902634 19.79196251 -7.6324261 19.59831358 -12 17.6875 C-14.9416821 15.20545573 -15.93191622 13.51549146 -16.4375 9.6875 C-16.0060636 6.05110749 -15.36479443 3.8137958 -12.8203125 1.109375 C-8.85071642 -1.30986381 -4.41576038 -0.8392527 0 0 Z " fill="#FFF6F6" transform="translate(346,176)"/>
<path d="M0 0 C2.73584005 3.48197825 2.70683729 5.94113579 2.49609375 10.27734375 C2.0625 12.625 2.0625 12.625 0.1875 15.1875 C-3.41371638 17.62361697 -5.57356813 17.88683591 -9.9375 17.625 C-12.54500576 16.75583141 -13.59671983 16.18563834 -15.02734375 13.83203125 C-16.02199996 11.42009667 -16.23680408 9.66209697 -16.25 7.0625 C-16.26675781 6.29808594 -16.28351563 5.53367188 -16.30078125 4.74609375 C-15.84535362 2.08698405 -15.05236017 1.25448242 -12.9375 -0.375 C-8.23710108 -1.94179964 -4.53715829 -2.12377622 0 0 Z " fill="#FF5353" transform="translate(391.9375,138.375)"/>
<path d="M0 0 C2.84299586 2.77530548 3.07494167 3.24874998 3.25 7 C2.96928406 11.25986443 1.7854501 13.58795873 -1.375 16.5625 C-4.43193322 18.09096661 -7.00484547 17.79492445 -10.375 17.5625 C-13.5600357 15.80234869 -14.20796972 15.06359084 -15.375 11.5625 C-15.578125 9.40625 -15.578125 9.40625 -15.625 7.0625 C-15.65078125 6.2890625 -15.6765625 5.515625 -15.703125 4.71875 C-15.29186494 2.01618386 -14.52051992 1.20673022 -12.375 -0.4375 C-7.64697744 -2.01350752 -4.61850527 -1.96714113 0 0 Z " fill="#FF5454" transform="translate(188.375,217.4375)"/>
<path d="M0 0 C0.99 0 1.98 0 3 0 C3.33 2.31 3.66 4.62 4 7 C4.66 6.34 5.32 5.68 6 5 C9 4.75 9 4.75 12 5 C14 7 14 7 14.3125 9.9375 C14 13 14 13 12.75 14.8125 C9.5601133 16.97706598 6.27861372 17.13794046 2.5 17.125 C1.7471875 17.12757813 0.994375 17.13015625 0.21875 17.1328125 C-2.00175029 16.99989523 -3.89095459 16.70607172 -6 16 C-8.08858407 13.07598231 -8.37223878 10.53626841 -8 7 C-6 5 -6 5 -2.875 4.875 C-1.92625 4.91625 -0.9775 4.9575 0 5 C0 3.35 0 1.7 0 0 Z " fill="#FF6A6A" transform="translate(238,344)"/>
<path d="M0 0 C1.32 0 2.64 0 4 0 C6.33333333 0 8.66666667 0 11 0 C10.67 0.99 10.34 1.98 10 3 C9.01 3 8.02 3 7 3 C7 5.31 7 7.62 7 10 C4.87527424 10.05386629 2.75016348 10.09273071 0.625 10.125 C-1.15003906 10.15980469 -1.15003906 10.15980469 -2.9609375 10.1953125 C-6 10 -6 10 -8 8 C-8.36487512 5.15397406 -8.40199375 3.6135694 -6.8125 1.1875 C-4.39780622 -0.39454075 -2.84702305 -0.20831876 0 0 Z " fill="#FF8181" transform="translate(252,321)"/>
<path d="M0 0 C3.96 0 7.92 0 12 0 C11 4 11 4 9 7 C9.99 7.33 10.98 7.66 12 8 C12 8.99 12 9.98 12 11 C10.37585622 11.19477739 8.75063577 11.38059458 7.125 11.5625 C6.22007812 11.66691406 5.31515625 11.77132813 4.3828125 11.87890625 C2 12 2 12 0 11 C0 7.37 0 3.74 0 0 Z " fill="#FF8D8D" transform="translate(298,321)"/>
<path d="M0 0 C6.0546875 -0.1953125 6.0546875 -0.1953125 8 0 C10 2 10 2 10.25 5 C10 8 10 8 8 10 C5.375 10.125 5.375 10.125 3 10 C3 11.65 3 13.3 3 15 C2.01 15 1.02 15 0 15 C0 10.05 0 5.1 0 0 Z " fill="#FFD5D5" transform="translate(233,294)"/>
<path d="M0 0 C-0.37979602 2.46867411 -0.71334328 3.72211849 -2.53125 5.484375 C-7.81008859 8.8779141 -11.77137372 9.64881524 -18 9 C-18.33 7.68 -18.66 6.36 -19 5 C-15.91289316 2.34246699 -13.5031193 1.45585846 -9.5 0.8125 C-8.5615625 0.65394531 -7.623125 0.49539062 -6.65625 0.33203125 C-4 0 -4 0 0 0 Z " fill="#FF5959" transform="translate(301,226)"/>
<path d="M0 0 C2.5625 0.375 2.5625 0.375 4.375 2.1875 C5.5625 4.375 5.5625 4.375 5.5625 7.375 C6.5525 7.375 7.5425 7.375 8.5625 7.375 C8.5625 9.025 8.5625 10.675 8.5625 12.375 C7.9025 12.045 7.2425 11.715 6.5625 11.375 C3.51638345 10.18394572 3.51638345 10.18394572 -0.0625 10.375 C-1.17625 10.375 -2.29 10.375 -3.4375 10.375 C-4.4375 9.375 -4.4375 9.375 -4.625 5.9375 C-4.41090405 1.86967689 -4.1232473 0.63434574 0 0 Z " fill="#FFDFDF" transform="translate(316.4375,320.625)"/>
<path d="M0 0 C0.66 0 1.32 0 2 0 C2 4.62 2 9.24 2 14 C-4.0546875 14.1953125 -4.0546875 14.1953125 -6 14 C-6.66 13.34 -7.32 12.68 -8 12 C-7.625 8.375 -7.625 8.375 -7 5 C-2.25 3.875 -2.25 3.875 0 5 C0 3.35 0 1.7 0 0 Z " fill="#FFCBCB" transform="translate(414,317)"/>
<path d="M0 0 C0.99 0 1.98 0 3 0 C3.33 0.99 3.66 1.98 4 3 C4.66 2.01 5.32 1.02 6 0 C7.9375 0.375 7.9375 0.375 10 1 C10.33 1.66 10.66 2.32 11 3 C11.33 2.01 11.66 1.02 12 0 C12.99 0 13.98 0 15 0 C14.01 3.3 13.02 6.6 12 10 C8 8 8 8 7 7 C6.01 8.485 6.01 8.485 5 10 C4.34 10 3.68 10 3 10 C2.01 6.7 1.02 3.4 0 0 Z " fill="#FFBEBE" transform="translate(373,349)"/>
<path d="M0 0 C5.43816793 0.2520363 8.60479354 1.10938732 12.75390625 4.7265625 C12.75390625 5.3865625 12.75390625 6.0465625 12.75390625 6.7265625 C6.15390625 6.7265625 -0.44609375 6.7265625 -7.24609375 6.7265625 C-2.24609375 0.7265625 -2.24609375 0.7265625 0 0 Z " fill="#FF5555" transform="translate(130.24609375,133.2734375)"/>
<path d="M0 0 C3 0.25 3 0.25 5 2.25 C5.25 5.25 5.25 5.25 5 8.25 C3 10.25 3 10.25 0.5625 10.5625 C-2 10.25 -2 10.25 -3.8125 9.0625 C-5.40199375 6.6364306 -5.36487512 5.09602594 -5 2.25 C-3 0.25 -3 0.25 0 0 Z " fill="#FFD7D7" transform="translate(247,348.75)"/>
<path d="M0 0 C3 0.25 3 0.25 5 2.25 C5.36487512 5.09602594 5.40199375 6.6364306 3.8125 9.0625 C1.3864306 10.65199375 -0.15397406 10.61487512 -3 10.25 C-5 8.25 -5 8.25 -5.25 5.25 C-4.90584825 1.120179 -4.129821 0.34415175 0 0 Z " fill="#FFD7D7" transform="translate(343,348.75)"/>
<path d="M0 0 C2.5625 0.25 2.5625 0.25 5.5625 2.25 C5.9375 5.25 5.9375 5.25 5.5625 8.25 C2.33876323 10.39915785 1.29546326 10.63286803 -2.4375 10.25 C-4.4375 8.25 -4.4375 8.25 -4.6875 5.25 C-4.37752366 1.53028393 -3.8002894 0.38977327 0 0 Z " fill="#FFEAEA" transform="translate(411.4375,293.75)"/>
<path d="M0 0 C2.5625 0.25 2.5625 0.25 5.5625 2.25 C6.0034511 5.11618213 5.97751866 6.61655047 4.375 9.0625 C1.9489306 10.65199375 0.40852594 10.61487512 -2.4375 10.25 C-4.4375 8.25 -4.4375 8.25 -4.6875 5.25 C-4.37752366 1.53028393 -3.8002894 0.38977327 0 0 Z " fill="#FFD8D8" transform="translate(393.4375,348.75)"/>
<path d="M0 0 C2.5625 0.25 2.5625 0.25 5.5625 2.25 C6.0034511 5.11618213 5.97751866 6.61655047 4.375 9.0625 C1.9489306 10.65199375 0.40852594 10.61487512 -2.4375 10.25 C-4.4375 8.25 -4.4375 8.25 -4.6875 5.25 C-4.37752366 1.53028393 -3.8002894 0.38977327 0 0 Z " fill="#FFE9E9" transform="translate(277.4375,293.75)"/>
<path d="M0 0 C4.62 0 9.24 0 14 0 C15.60725635 3.21451269 15.05748185 6.43612536 15 10 C14.01 10 13.02 10 12 10 C12 7.36 12 4.72 12 2 C11.01 2.33 10.02 2.66 9 3 C8.67 5.31 8.34 7.62 8 10 C7.34 10 6.68 10 6 10 C6 7.36 6 4.72 6 2 C4.68 2 3.36 2 2 2 C2 4.31 2 6.62 2 9 C1.34 9 0.68 9 0 9 C0 6.03 0 3.06 0 0 Z " fill="#FFEAEA" transform="translate(277,349)"/>
<path d="M0 0 C0.99 0 1.98 0 3 0 C3.33 2.31 3.66 4.62 4 7 C4.66 6.34 5.32 5.68 6 5 C6.99 5.33 7.98 5.66 9 6 C8.443125 6.8353125 8.443125 6.8353125 7.875 7.6875 C6.70484137 10.05716353 6.70484137 10.05716353 7.875 12.75 C8.24625 13.4925 8.6175 14.235 9 15 C7.68 14.34 6.36 13.68 5 13 C5 12.34 5 11.68 5 11 C4.34 11 3.68 11 3 11 C3 12.32 3 13.64 3 15 C2.01 15 1.02 15 0 15 C0 10.05 0 5.1 0 0 Z " fill="#FFD3D3" transform="translate(408,344)"/>
<path d="M0 0 C0.99386719 0.00902344 1.98773438 0.01804688 3.01171875 0.02734375 C4.15060547 0.04474609 4.15060547 0.04474609 5.3125 0.0625 C5.3125 1.3825 5.3125 2.7025 5.3125 4.0625 C2.12425432 5.65662284 -1.31646662 5.16424735 -4.8125 5.125 C-5.56660156 5.12048828 -6.32070313 5.11597656 -7.09765625 5.11132812 C-8.96097127 5.09953499 -10.82424555 5.08159942 -12.6875 5.0625 C-8.57845007 0.67006731 -5.94216039 -0.06990777 0 0 Z " fill="#FF5454" transform="translate(294.6875,215.9375)"/>
<path d="M0 0 C2.31 0 4.62 0 7 0 C7.05389087 1.95803507 7.09274217 3.91648909 7.125 5.875 C7.14820313 6.96554687 7.17140625 8.05609375 7.1953125 9.1796875 C7 12 7 12 5 14 C1.875 14.125 1.875 14.125 -1 14 C-1.66 12.68 -2.32 11.36 -3 10 C-0.69 10.33 1.62 10.66 4 11 C4.33 10.34 4.66 9.68 5 9 C3.5459375 9.0309375 3.5459375 9.0309375 2.0625 9.0625 C-1 9 -1 9 -2 8 C-2.04063832 6.33382885 -2.042721 4.66611905 -2 3 C-1.01 4.485 -1.01 4.485 0 6 C1.32 6 2.64 6 4 6 C4 4.68 4 3.36 4 2 C2.68 1.34 1.36 0.68 0 0 Z " fill="#FFDCDC" transform="translate(266,322)"/>
<path d="M0 0 C2.375 -0.125 2.375 -0.125 5 0 C7 2 7 2 7.1953125 3.9453125 C7.13020833 5.96354167 7.06510417 7.98177083 7 10 C4.36 10 1.72 10 -1 10 C-1.33 8.35 -1.66 6.7 -2 5 C-0.02 4.67 1.96 4.34 4 4 C4 3.34 4 2.68 4 2 C2.35 2.33 0.7 2.66 -1 3 C-0.67 2.01 -0.34 1.02 0 0 Z " fill="#FFE6E6" transform="translate(219,294)"/>
<path d="M0 0 C0.99 0 1.98 0 3 0 C3 2.31 3 4.62 3 7 C4.32 7 5.64 7 7 7 C7 4.69 7 2.38 7 0 C7.99 0 8.98 0 10 0 C10 3.3 10 6.6 10 10 C3.9453125 10.1953125 3.9453125 10.1953125 2 10 C0 8 0 8 -0.1953125 6.0546875 C-0.13020833 4.03645833 -0.06510417 2.01822917 0 0 Z " fill="#FFCDCD" transform="translate(349,349)"/>
<path d="M0 0 C2.375 -0.125 2.375 -0.125 5 0 C7 2 7 2 7.1953125 3.9453125 C7.13020833 5.96354167 7.06510417 7.98177083 7 10 C3.625 10.625 3.625 10.625 0 11 C-0.66 10.34 -1.32 9.68 -2 9 C-1.625 6.875 -1.625 6.875 -1 5 C0.65 5 2.3 5 4 5 C4 4.01 4 3.02 4 2 C2.35 2.33 0.7 2.66 -1 3 C-0.67 2.01 -0.34 1.02 0 0 Z " fill="#FFD3D3" transform="translate(386,321)"/>
<path d="M0 0 C2.375 -0.125 2.375 -0.125 5 0 C7 2 7 2 7.1953125 3.9453125 C7.13020833 5.96354167 7.06510417 7.98177083 7 10 C4.36 10 1.72 10 -1 10 C-1.33 8.35 -1.66 6.7 -2 5 C-0.02 4.67 1.96 4.34 4 4 C4 3.34 4 2.68 4 2 C2.35 2.33 0.7 2.66 -1 3 C-0.67 2.01 -0.34 1.02 0 0 Z " fill="#FFDFDF" transform="translate(368,294)"/>
<path d="M0 0 C1.27875 -0.061875 2.5575 -0.12375 3.875 -0.1875 C4.95394531 -0.23970703 4.95394531 -0.23970703 6.0546875 -0.29296875 C6.69664062 -0.19628906 7.33859375 -0.09960938 8 0 C10.4294516 3.6441774 10.16179575 5.71241272 10 10 C9.01 10 8.02 10 7 10 C7 7.69 7 5.38 7 3 C5.68 3 4.36 3 3 3 C3 5.31 3 7.62 3 10 C2.01 10 1.02 10 0 10 C0 6.7 0 3.4 0 0 Z " fill="#FFC7C7" transform="translate(395,321)"/>
<path d="M0 0 C6.0546875 -0.1953125 6.0546875 -0.1953125 8 0 C10 2 10 2 10.1953125 3.9453125 C10.13020833 5.96354167 10.06510417 7.98177083 10 10 C9.01 10 8.02 10 7 10 C7 7.69 7 5.38 7 3 C5.68 3 4.36 3 3 3 C3 5.31 3 7.62 3 10 C2.01 10 1.02 10 0 10 C0 6.7 0 3.4 0 0 Z " fill="#FFCCCC" transform="translate(286,321)"/>
<path d="M0 0 C2.5 0.25 2.5 0.25 4.5 2.25 C4.5 3.57 4.5 4.89 4.5 6.25 C2.52 6.58 0.54 6.91 -1.5 7.25 C0.48 7.25 2.46 7.25 4.5 7.25 C4.5 7.91 4.5 8.57 4.5 9.25 C1.125 9.875 1.125 9.875 -2.5 10.25 C-4.5 8.25 -4.5 8.25 -4.75 5.25 C-4.43608753 1.48305032 -3.83691092 0.38369109 0 0 Z " fill="#FFE1E1" transform="translate(249.5,293.75)"/>
<path d="M0 0 C2.375 -0.125 2.375 -0.125 5 0 C7 2 7 2 7.1953125 3.9453125 C7.13020833 5.96354167 7.06510417 7.98177083 7 10 C4.03 10 1.06 10 -2 10 C-1.67 8.35 -1.34 6.7 -1 5 C0.65 5 2.3 5 4 5 C4 4.01 4 3.02 4 2 C2.35 2.33 0.7 2.66 -1 3 C-0.67 2.01 -0.34 1.02 0 0 Z " fill="#FFC8C8" transform="translate(349,321)"/>
<path d="M0 0 C0.94875 0.04125 1.8975 0.0825 2.875 0.125 C3.205 1.775 3.535 3.425 3.875 5.125 C1.895 5.125 -0.085 5.125 -2.125 5.125 C-2.125 6.115 -2.125 7.105 -2.125 8.125 C-0.145 7.795 1.835 7.465 3.875 7.125 C3.545 8.115 3.215 9.105 2.875 10.125 C0 10.3125 0 10.3125 -3.125 10.125 C-5.27415785 6.90126323 -5.50786803 5.85796326 -5.125 2.125 C-3.125 0.125 -3.125 0.125 0 0 Z " fill="#FFDBDB" transform="translate(298.125,348.875)"/>
<path d="M0 0 C0.99 0 1.98 0 3 0 C3.33 1.65 3.66 3.3 4 5 C4.66 5 5.32 5 6 5 C6.33 3.35 6.66 1.7 7 0 C7.99 0 8.98 0 10 0 C9.57316761 1.58624235 9.13303842 3.1689098 8.6875 4.75 C8.44386719 5.63171875 8.20023437 6.5134375 7.94921875 7.421875 C6.95113603 10.13271695 6.02729613 11.93899586 4 14 C2.68 14 1.36 14 0 14 C0 13.34 0 12.68 0 12 C0.99 12 1.98 12 3 12 C2.690625 10.7625 2.38125 9.525 2.0625 8.25 C1.375 5.5 0.6875 2.75 0 0 Z " fill="#FFE2E2" transform="translate(327,349)"/>
<path d="M0 0 C2.97 0 5.94 0 9 0 C10.60725635 3.21451269 10.05748185 6.43612536 10 10 C9.34 10 8.68 10 8 10 C8 7.69 8 5.38 8 3 C6.35 3 4.7 3 3 3 C3 5.31 3 7.62 3 10 C2.01 10 1.02 10 0 10 C0 6.7 0 3.4 0 0 Z " fill="#FFC1C1" transform="translate(284,294)"/>
<path d="M0 0 C3.46679688 0.04882812 3.46679688 0.04882812 6.93359375 0.09765625 C6.93359375 4.05765625 6.93359375 8.01765625 6.93359375 12.09765625 C6.60359375 12.09765625 6.27359375 12.09765625 5.93359375 12.09765625 C5.93359375 8.46765625 5.93359375 4.83765625 5.93359375 1.09765625 C4.94359375 1.42765625 3.95359375 1.75765625 2.93359375 2.09765625 C3.26359375 3.74765625 3.59359375 5.39765625 3.93359375 7.09765625 C1.17095086 7.69498444 -1.22673394 8.09765625 -4.06640625 8.09765625 C-3.05416559 0.14433675 -3.05416559 0.14433675 0 0 Z " fill="#FFACAC" transform="translate(267.06640625,320.90234375)"/>
<path d="M0 0 C0.66 0 1.32 0 2 0 C2.33 2.31 2.66 4.62 3 7 C3.66 6.01 4.32 5.02 5 4 C5.99 4 6.98 4 8 4 C7.814375 5.093125 7.62875 6.18625 7.4375 7.3125 C6.7421932 10.93624133 6.7421932 10.93624133 8 14 C5 14 5 14 3.3125 12.5 C2.879375 12.005 2.44625 11.51 2 11 C2 11.99 2 12.98 2 14 C1.34 14 0.68 14 0 14 C0 9.38 0 4.76 0 0 Z " fill="#FFE3E3" transform="translate(369,317)"/>
<path d="M0 0 C6.15234375 -0.09765625 6.15234375 -0.09765625 8 0 C9 1 9 1 9.09765625 3.06640625 C9.08605469 3.89011719 9.07445312 4.71382813 9.0625 5.5625 C9.05347656 6.38878906 9.04445313 7.21507812 9.03515625 8.06640625 C9.02355469 8.70449219 9.01195312 9.34257812 9 10 C8.34 10 7.68 10 7 10 C6.67 7.69 6.34 5.38 6 3 C5.34 3 4.68 3 4 3 C3.67 5.31 3.34 7.62 3 10 C2.01 10 1.02 10 0 10 C0 6.7 0 3.4 0 0 Z " fill="#FFD5D5" transform="translate(377,294)"/>
<path d="M0 0 C6.15234375 -0.09765625 6.15234375 -0.09765625 8 0 C9 1 9 1 9.09765625 3.06640625 C9.08605469 3.89011719 9.07445312 4.71382813 9.0625 5.5625 C9.05347656 6.38878906 9.04445313 7.21507812 9.03515625 8.06640625 C9.02355469 8.70449219 9.01195312 9.34257812 9 10 C8.01 10 7.02 10 6 10 C6 7.36 6 4.72 6 2 C5.01 2.33 4.02 2.66 3 3 C2.67 5.31 2.34 7.62 2 10 C1.34 10 0.68 10 0 10 C0 6.7 0 3.4 0 0 Z " fill="#FFDBDB" transform="translate(305,349)"/>
<path d="M0 0 C1 1 1 1 1.09765625 2.84765625 C1.04882812 5.92382812 1.04882812 5.92382812 1 9 C-1.64 9 -4.28 9 -7 9 C-7.33 7.35 -7.66 5.7 -8 4 C-7.01 4.33 -6.02 4.66 -5 5 C-5.33 5.66 -5.66 6.32 -6 7 C-5.01 6.67 -4.02 6.34 -3 6 C-2.67 5.34 -2.34 4.68 -2 4 C-2.66 3.67 -3.32 3.34 -4 3 C-3.34 3 -2.68 3 -2 3 C-2 2.34 -2 1.68 -2 1 C-3.65 1.33 -5.3 1.66 -7 2 C-7 1.34 -7 0.68 -7 0 C-4.31633121 -1.3418344 -2.84719317 -0.73004953 0 0 Z " fill="#FFCFCF" transform="translate(304,295)"/>
<path d="M0 0 C0.33 0.99 0.66 1.98 1 3 C-1.97 2.505 -1.97 2.505 -5 2 C-5 3.65 -5 5.3 -5 7 C-3.02 6.67 -1.04 6.34 1 6 C0.34 7.32 -0.32 8.64 -1 10 C-3.375 10.125 -3.375 10.125 -6 10 C-8 8 -8 8 -8.125 4.375 C-8.08375 3.26125 -8.0425 2.1475 -8 1 C-5.29120665 -0.35439668 -2.99066732 -0.06501451 0 0 Z " fill="#FFDEDE" transform="translate(262,349)"/>
<path d="M0 0 C0.78375 0.04125 1.5675 0.0825 2.375 0.125 C3.035 1.445 3.695 2.765 4.375 4.125 C2.065 3.795 -0.245 3.465 -2.625 3.125 C-2.625 4.775 -2.625 6.425 -2.625 8.125 C-0.645 7.795 1.335 7.465 3.375 7.125 C3.045 8.115 2.715 9.105 2.375 10.125 C-0.5 10.3125 -0.5 10.3125 -3.625 10.125 C-5.625 7.125 -5.625 7.125 -5.375 4.5625 C-4.336523 1.18744974 -3.59386412 0.17113639 0 0 Z " fill="#FFC9C9" transform="translate(362.625,320.875)"/>
<path d="M0 0 C0.33 0.99 0.66 1.98 1 3 C-0.65 2.67 -2.3 2.34 -4 2 C-4 2.66 -4 3.32 -4 4 C-2.35 4.33 -0.7 4.66 1 5 C1 6.32 1 7.64 1 9 C-1.31 9.33 -3.62 9.66 -6 10 C-6.33 9.01 -6.66 8.02 -7 7 C-4.03 7.495 -4.03 7.495 -1 8 C-1 7.34 -1 6.68 -1 6 C-3.97 5.505 -3.97 5.505 -7 5 C-7 3.68 -7 2.36 -7 1 C-4.53721199 -0.231394 -2.7204945 -0.07159196 0 0 Z " fill="#FFE0E0" transform="translate(357,294)"/>
<path d="M0 0 C1 1 1 1 1.09765625 2.84765625 C1.04882812 5.92382812 1.04882812 5.92382812 1 9 C-1.64 9 -4.28 9 -7 9 C-7 8.34 -7 7.68 -7 7 C-5.68 6.67 -4.36 6.34 -3 6 C-4.32 5.34 -5.64 4.68 -7 4 C-5.35 3.67 -3.7 3.34 -2 3 C-2 2.34 -2 1.68 -2 1 C-3.65 1.33 -5.3 1.66 -7 2 C-7 1.34 -7 0.68 -7 0 C-4.31633121 -1.3418344 -2.84719317 -0.73004953 0 0 Z " fill="#FFD9D9" transform="translate(325,295)"/>
<path d="M0 0 C2.31 0 4.62 0 7 0 C6.38722388 2.96175123 5.74627478 4.38058783 4 7 C4.99 7.33 5.98 7.66 7 8 C7 8.66 7 9.32 7 10 C4.36 10 1.72 10 -1 10 C0.20381448 7.50638429 1.45428722 5.31856917 3 3 C1.68 3 0.36 3 -1 3 C-0.67 2.01 -0.34 1.02 0 0 Z " fill="#FFD4D4" transform="translate(303,321)"/>
<path d="M0 0 C0.66 0 1.32 0 2 0 C2.33 2.31 2.66 4.62 3 7 C3.99 7 4.98 7 6 7 C6.33 4.69 6.66 2.38 7 0 C7.66 0 8.32 0 9 0 C9 3.3 9 6.6 9 10 C2.84765625 10.09765625 2.84765625 10.09765625 1 10 C0 9 0 9 -0.09765625 6.93359375 C-0.08605469 6.10988281 -0.07445312 5.28617187 -0.0625 4.4375 C-0.05347656 3.61121094 -0.04445313 2.78492188 -0.03515625 1.93359375 C-0.02355469 1.29550781 -0.01195312 0.65742188 0 0 Z " fill="#FFDFDF" transform="translate(265,349)"/>
<path d="M0 0 C0.66 0 1.32 0 2 0 C2 4.29 2 8.58 2 13 C1.34 13 0.68 13 0 13 C-0.33 11.35 -0.66 9.7 -1 8 C-2.32 8 -3.64 8 -5 8 C-5.33 9.32 -5.66 10.64 -6 12 C-6.66 12 -7.32 12 -8 12 C-8.125 9.625 -8.125 9.625 -8 7 C-6 5 -6 5 -2.875 4.875 C-1.92625 4.91625 -0.9775 4.9575 0 5 C0 3.35 0 1.7 0 0 Z " fill="#FFE5E5" transform="translate(238,344)"/>
<path d="M0 0 C0 0.66 0 1.32 0 2 C-1.32 1.67 -2.64 1.34 -4 1 C-4 1.66 -4 2.32 -4 3 C-2.35 3.33 -0.7 3.66 1 4 C1 5.32 1 6.64 1 8 C-1.31 8.33 -3.62 8.66 -6 9 C-6.33 8.01 -6.66 7.02 -7 6 C-4.525 6.495 -4.525 6.495 -2 7 C-2 6.34 -2 5.68 -2 5 C-3.65 4.67 -5.3 4.34 -7 4 C-6.625 2.0625 -6.625 2.0625 -6 0 C-3.50907189 -1.24546405 -2.58919267 -0.7767578 0 0 Z " fill="#FFD5D5" transform="translate(334,295)"/>
<path d="M0 0 C0.99 0 1.98 0 3 0 C3 0.99 3 1.98 3 3 C3.66 3 4.32 3 5 3 C5 3.99 5 4.98 5 6 C4.34 6 3.68 6 3 6 C3 8.31 3 10.62 3 13 C2.01 13 1.02 13 0 13 C0 10.36 0 7.72 0 5 C-0.66 5 -1.32 5 -2 5 C-2 4.34 -2 3.68 -2 3 C-1.34 3 -0.68 3 0 3 C0 2.01 0 1.02 0 0 Z " fill="#FFCDCD" transform="translate(317,346)"/>
<path d="M0 0 C2.375 -0.125 2.375 -0.125 5 0 C7 2 7 2 7.1953125 3.9453125 C7.13020833 5.96354167 7.06510417 7.98177083 7 10 C4.36 10 1.72 10 -1 10 C-1 8.35 -1 6.7 -1 5 C0.32 5.33 1.64 5.66 3 6 C2.34 6 1.68 6 1 6 C1 6.99 1 7.98 1 9 C1.99 8.67 2.98 8.34 4 8 C4.33 6.02 4.66 4.04 5 2 C3.68 2 2.36 2 1 2 C1 2.66 1 3.32 1 4 C0.34 4 -0.32 4 -1 4 C-0.67 2.68 -0.34 1.36 0 0 Z " fill="#FFDFDF" transform="translate(277,321)"/>
<path d="M0 0 C2.375 -0.125 2.375 -0.125 5 0 C7 2 7 2 7.125 5.625 C7.08375 6.73875 7.0425 7.8525 7 9 C4.69 8.67 2.38 8.34 0 8 C0 5.33333333 0 2.66666667 0 0 Z " fill="#FFC9C9" transform="translate(247,321)"/>
<path d="M0 0 C1.65 0.33 3.3 0.66 5 1 C5 2.65 5 4.3 5 6 C5.66 6.33 6.32 6.66 7 7 C4.36 7.33 1.72 7.66 -1 8 C-2.2077558 4.37673261 -1.54311128 3.35853631 0 0 Z " fill="#FFC6C6" transform="translate(233,351)"/>
<path d="M0 0 C1.65 0 3.3 0 5 0 C5.33 0.99 5.66 1.98 6 3 C4.35 2.67 2.7 2.34 1 2 C1 2.66 1 3.32 1 4 C2.65 4.33 4.3 4.66 6 5 C6 6.32 6 7.64 6 9 C4.02 9.33 2.04 9.66 0 10 C-0.66 9.01 -1.32 8.02 -2 7 C0.97 7.495 0.97 7.495 4 8 C4 7.34 4 6.68 4 6 C2.35 5.67 0.7 5.34 -1 5 C-0.67 3.35 -0.34 1.7 0 0 Z " fill="#FFDBDB" transform="translate(265,294)"/>
<path d="M0 0 C0.66 0 1.32 0 2 0 C2 4.62 2 9.24 2 14 C-4.15234375 14.09765625 -4.15234375 14.09765625 -6 14 C-7 13 -7 13 -7.0625 10.4375 C-7.041875 9.633125 -7.02125 8.82875 -7 8 C-6.01 9.485 -6.01 9.485 -5 11 C-3.68 11 -2.36 11 -1 11 C-0.67 7.37 -0.34 3.74 0 0 Z " fill="#FFE7E7" transform="translate(414,317)"/>
<path d="M0 0 C1.65 0 3.3 0 5 0 C5.33 0.99 5.66 1.98 6 3 C4.35 2.67 2.7 2.34 1 2 C1 2.66 1 3.32 1 4 C2.65 4.33 4.3 4.66 6 5 C6 6.32 6 7.64 6 9 C4.02 9.33 2.04 9.66 0 10 C-0.33 9.01 -0.66 8.02 -1 7 C1.475 7.495 1.475 7.495 4 8 C4 7.34 4 6.68 4 6 C2.35 5.67 0.7 5.34 -1 5 C-0.67 3.35 -0.34 1.7 0 0 Z " fill="#FFE0E0" transform="translate(338,294)"/>
<path d="M0 0 C0.33 0 0.66 0 1 0 C1 4.62 1 9.24 1 14 C0.67 14 0.34 14 0 14 C0 12.35 0 10.7 0 9 C-0.33 10.65 -0.66 12.3 -1 14 C-1.66 13.67 -2.32 13.34 -3 13 C-2.67 12.34 -2.34 11.68 -2 11 C-3.98 11.33 -5.96 11.66 -8 12 C-8 10.35 -8 8.7 -8 7 C-5.69 7 -3.38 7 -1 7 C-0.67 4.69 -0.34 2.38 0 0 Z " fill="#FF6D6D" transform="translate(368,317)"/>
<path d="M0 0 C-0.125 1.75 -0.125 1.75 -1 4 C-4.0625 6.25 -4.0625 6.25 -7 8 C-7.33 7.34 -7.66 6.68 -8 6 C-7.67 5.34 -7.34 4.68 -7 4 C-9.64 3.67 -12.28 3.34 -15 3 C-15 2.67 -15 2.34 -15 2 C-13.2508503 1.66223316 -11.50063855 1.32996329 -9.75 1 C-8.77546875 0.814375 -7.8009375 0.62875 -6.796875 0.4375 C-4 0 -4 0 0 0 Z " fill="#FF7676" transform="translate(301,226)"/>
<path d="M0 0 C0.99 0 1.98 0 3 0 C4.29676812 4.61073111 3.71109139 8.33840089 3 13 C2.01 13 1.02 13 0 13 C-0.19658808 11.58456585 -0.38187546 10.16755969 -0.5625 8.75 C-0.66691406 7.96109375 -0.77132813 7.1721875 -0.87890625 6.359375 C-1.00027349 3.99467126 -0.69633257 2.2488963 0 0 Z " fill="#FFD2D2" transform="translate(334,318)"/>
<path d="M0 0 C2.64 0 5.28 0 8 0 C7.67 2.31 7.34 4.62 7 7 C6.01 7 5.02 7 4 7 C4.66 6.01 5.32 5.02 6 4 C4.02 4.33 2.04 4.66 0 5 C0 3.35 0 1.7 0 0 Z " fill="#FF5C5C" transform="translate(257,351)"/>
<path d="M0 0 C0.33 0.99 0.66 1.98 1 3 C1.99 3 2.98 3 4 3 C4 4.65 4 6.3 4 8 C3.34 7.67 2.68 7.34 2 7 C1.21625 6.855625 0.4325 6.71125 -0.375 6.5625 C-2.88825355 6.02394567 -4.76573931 5.24125594 -7 4 C-7 3.34 -7 2.68 -7 2 C-4.69 2 -2.38 2 0 2 C0 1.34 0 0.68 0 0 Z " fill="#FF9999" transform="translate(321,325)"/>
<path d="M0 0 C1.98 0 3.96 0 6 0 C6 0.99 6 1.98 6 3 C5.01 3 4.02 3 3 3 C3 5.31 3 7.62 3 10 C2.01 10 1.02 10 0 10 C0 6.7 0 3.4 0 0 Z " fill="#FFCECE" transform="translate(256,294)"/>
<path d="M0 0 C1.60725635 3.21451269 1.05748185 6.43612536 1 10 C0.01 10 -0.98 10 -2 10 C-2 7.36 -2 4.72 -2 2 C-3.32 2.33 -4.64 2.66 -6 3 C-6.33 2.34 -6.66 1.68 -7 1 C-4.53721199 -0.231394 -2.7204945 -0.07159196 0 0 Z " fill="#FFD2D2" transform="translate(291,349)"/>
<path d="M0 0 C0.78375 0.04125 1.5675 0.0825 2.375 0.125 C1.385 0.785 0.395 1.445 -0.625 2.125 C-1.35465366 4.68782742 -1.35465366 4.68782742 -1.625 7.125 C0.355 7.125 2.335 7.125 4.375 7.125 C4.045 7.785 3.715 8.445 3.375 9.125 C0.5 9.25 0.5 9.25 -2.625 9.125 C-4.625 7.125 -4.625 7.125 -4.875 4.625 C-4.51649553 1.03995533 -3.59522993 0.17120143 0 0 Z " fill="#FFE2E2" transform="translate(248.625,321.875)"/>
<path d="M0 0 C0.33 0.66 0.66 1.32 1 2 C1.66 2 2.32 2 3 2 C3 1.34 3 0.68 3 0 C4.32 0 5.64 0 7 0 C7 1.98 7 3.96 7 6 C5.68 6.33 4.36 6.66 3 7 C3 6.01 3 5.02 3 4 C2.34 3.67 1.68 3.34 1 3 C0.67 4.32 0.34 5.64 0 7 C0 4.69 0 2.38 0 0 Z " fill="#FF8383" transform="translate(275,323)"/>
<path d="M0 0 C0.66 0 1.32 0 2 0 C2 0.99 2 1.98 2 3 C2.66 3 3.32 3 4 3 C4 3.66 4 4.32 4 5 C3.34 5 2.68 5 2 5 C2 7.64 2 10.28 2 13 C1.34 13 0.68 13 0 13 C0 10.36 0 7.72 0 5 C-0.66 5 -1.32 5 -2 5 C-2 4.34 -2 3.68 -2 3 C-1.34 3 -0.68 3 0 3 C0 2.01 0 1.02 0 0 Z " fill="#FFE6E6" transform="translate(402,291)"/>
<path d="M0 0 C0.33 0 0.66 0 1 0 C1 2.64 1 5.28 1 8 C-1.64 8 -4.28 8 -7 8 C-6.67 6.68 -6.34 5.36 -6 4 C-4.35 3.67 -2.7 3.34 -1 3 C-0.67 2.01 -0.34 1.02 0 0 Z " fill="#FFAEAE" transform="translate(225,296)"/>
<path d="M0 0 C1.98 0 3.96 0 6 0 C6 0.99 6 1.98 6 3 C5.01 3.33 4.02 3.66 3 4 C2.67 5.98 2.34 7.96 2 10 C1.34 10 0.68 10 0 10 C0 6.7 0 3.4 0 0 Z " fill="#FFE1E1" transform="translate(340,321)"/>
<path d="M0 0 C0.66 0 1.32 0 2 0 C3.29676812 4.61073111 2.71109139 8.33840089 2 13 C1.34 13 0.68 13 0 13 C0 10.36 0 7.72 0 5 C-0.66 5 -1.32 5 -2 5 C-2 4.34 -2 3.68 -2 3 C-1.34 3 -0.68 3 0 3 C0 2.01 0 1.02 0 0 Z " fill="#FFEBEB" transform="translate(390,291)"/>
<path d="M0 0 C0.66 0 1.32 0 2 0 C3.29676812 4.61073111 2.71109139 8.33840089 2 13 C1.34 13 0.68 13 0 13 C0 10.36 0 7.72 0 5 C-0.66 5 -1.32 5 -2 5 C-2 4.34 -2 3.68 -2 3 C-1.34 3 -0.68 3 0 3 C0 2.01 0 1.02 0 0 Z " fill="#FFE3E3" transform="translate(361,291)"/>
<path d="M0 0 C0.66 0.33 1.32 0.66 2 1 C2 1.66 2 2.32 2 3 C3.65 2.67 5.3 2.34 7 2 C7 2.99 7 3.98 7 5 C6.21625 5.103125 5.4325 5.20625 4.625 5.3125 C1.66954819 5.77595022 1.66954819 5.77595022 0 9 C-0.185625 8.071875 -0.185625 8.071875 -0.375 7.125 C-0.87197356 4.80879168 -0.87197356 4.80879168 -3 3 C-2.01 3 -1.02 3 0 3 C0 2.01 0 1.02 0 0 Z " fill="#FF7979" transform="translate(346,321)"/>
<path d="M0 0 C1.98 0.99 1.98 0.99 4 2 C4.33 2 4.66 2 5 2 C4.67 4.64 4.34 7.28 4 10 C3.01 10 2.02 10 1 10 C0.67 6.7 0.34 3.4 0 0 Z " fill="#FF8484" transform="translate(378,203)"/>
<path d="M0 0 C0.99 0 1.98 0 3 0 C3 1.65 3 3.3 3 5 C3.99 5 4.98 5 6 5 C5.67 6.65 5.34 8.3 5 10 C4.34 10 3.68 10 3 10 C2.01 6.7 1.02 3.4 0 0 Z " fill="#FFE2E2" transform="translate(373,349)"/>
<path d="M0 0 C1.98 0 3.96 0 6 0 C6 0.66 6 1.32 6 2 C5.01 2.33 4.02 2.66 3 3 C2.67 5.31 2.34 7.62 2 10 C1.34 10 0.68 10 0 10 C0 6.7 0 3.4 0 0 Z " fill="#FFE5E5" transform="translate(361,349)"/>
<path d="M0 0 C0.99 0 1.98 0 3 0 C2.01 3.3 1.02 6.6 0 10 C-0.99 9.67 -1.98 9.34 -3 9 C-3 7.68 -3 6.36 -3 5 C-2.01 5 -1.02 5 0 5 C0 3.35 0 1.7 0 0 Z " fill="#FFD9D9" transform="translate(385,349)"/>
<path d="M0 0 C1.65 0 3.3 0 5 0 C6.4783226 2.95664519 6.06032783 5.74229737 6 9 C5.01 9 4.02 9 3 9 C2.87625 7.88625 2.7525 6.7725 2.625 5.625 C2.3534187 1.96896323 2.3534187 1.96896323 0 0 Z " fill="#FFD6D6" transform="translate(399,322)"/>
<path d="M0 0 C1.98 0 3.96 0 6 0 C6 0.66 6 1.32 6 2 C5.01 2.33 4.02 2.66 3 3 C2.67 5.31 2.34 7.62 2 10 C1.34 10 0.68 10 0 10 C0 6.7 0 3.4 0 0 Z " fill="#FFEBEB" transform="translate(401,349)"/>
<path d="M0 0 C1.32 0 2.64 0 4 0 C4 1.65 4 3.3 4 5 C2.68 5.33 1.36 5.66 0 6 C-0.38218767 4.34385343 -0.71395102 2.67542976 -1 1 C-0.67 0.67 -0.34 0.34 0 0 Z " fill="#FF6060" transform="translate(410,296)"/>
<path d="M0 0 C0.33 0.99 0.66 1.98 1 3 C-0.65 2.67 -2.3 2.34 -4 2 C-3.67 3.32 -3.34 4.64 -3 6 C-4.32 5.67 -5.64 5.34 -7 5 C-7 3.68 -7 2.36 -7 1 C-4.53721199 -0.231394 -2.7204945 -0.07159196 0 0 Z " fill="#FFCACA" transform="translate(357,294)"/>
<path d="M0 0 C1.98 0.495 1.98 0.495 4 1 C3.67 2.65 3.34 4.3 3 6 C1.68 5.67 0.36 5.34 -1 5 C-0.67 3.35 -0.34 1.7 0 0 Z " fill="#FF5B5B" transform="translate(341,351)"/>
<path d="M0 0 C1.98 0.495 1.98 0.495 4 1 C3.67 2.65 3.34 4.3 3 6 C1.68 5.67 0.36 5.34 -1 5 C-0.67 3.35 -0.34 1.7 0 0 Z " fill="#FF5D5D" transform="translate(392,351)"/>
<path d="M0 0 C1.98 0.495 1.98 0.495 4 1 C3.67 2.65 3.34 4.3 3 6 C1.68 5.67 0.36 5.34 -1 5 C-0.67 3.35 -0.34 1.7 0 0 Z " fill="#FF5C5C" transform="translate(246,351)"/>
<path d="M0 0 C2.31 0 4.62 0 7 0 C7.125 5.75 7.125 5.75 6 8 C4.02 8 2.04 8 0 8 C1.32 7.34 2.64 6.68 4 6 C4 4.68 4 3.36 4 2 C2.68 1.34 1.36 0.68 0 0 Z " fill="#FFEDED" transform="translate(266,322)"/>
<path d="M0 0 C1.98 0.495 1.98 0.495 4 1 C3.67 2.65 3.34 4.3 3 6 C1.68 5.67 0.36 5.34 -1 5 C-0.67 3.35 -0.34 1.7 0 0 Z " fill="#FF5757" transform="translate(276,296)"/>
<path d="M0 0 C1.98 0.495 1.98 0.495 4 1 C3.67 2.65 3.34 4.3 3 6 C1.68 5.67 0.36 5.34 -1 5 C-0.67 3.35 -0.34 1.7 0 0 Z " fill="#FF5E5E" transform="translate(237,296)"/>
<path d="M0 0 C0 2.64 0 5.28 0 8 C-0.66 7.67 -1.32 7.34 -2 7 C-2 6.34 -2 5.68 -2 5 C-2.66 4.34 -3.32 3.68 -4 3 C-3.34 3 -2.68 3 -2 3 C-2 2.34 -2 1.68 -2 1 C-3.65 1.33 -5.3 1.66 -7 2 C-7 1.34 -7 0.68 -7 0 C-4.3333581 -1.33332095 -2.83319697 -0.67102033 0 0 Z " fill="#FFE6E6" transform="translate(304,295)"/>
<path d="M0 0 C0.33 1.32 0.66 2.64 1 4 C2.98 3.67 4.96 3.34 7 3 C6.34 4.32 5.68 5.64 5 7 C3.35 7 1.7 7 0 7 C-1.33332095 4.3333581 -0.67102033 2.83319697 0 0 Z " fill="#FFC7C7" transform="translate(256,352)"/>
<path d="M0 0 C2.97 0.495 2.97 0.495 6 1 C6 2.65 6 4.3 6 6 C4.68 6.33 3.36 6.66 2 7 C0.5393715 4.35261084 0 3.10551666 0 0 Z " fill="#FF7F7F" transform="translate(296,295)"/>
<path d="M0 0 C0.98484375 0.19464844 1.9696875 0.38929688 2.984375 0.58984375 C4.10585938 0.82380859 4.10585938 0.82380859 5.25 1.0625 C5.25 1.3925 5.25 1.7225 5.25 2.0625 C-0.03 2.0625 -5.31 2.0625 -10.75 2.0625 C-9.75 0.0625 -9.75 0.0625 -8.046875 -0.62109375 C-5.16045709 -1.01871254 -2.85104949 -0.57699811 0 0 Z " fill="#FF6666" transform="translate(292.75,218.9375)"/>
<path d="M0 0 C0.99 0 1.98 0 3 0 C2.01 3.3 1.02 6.6 0 10 C-0.33 9.01 -0.66 8.02 -1 7 C-1.66 7 -2.32 7 -3 7 C-3 6.34 -3 5.68 -3 5 C-2.34 5 -1.68 5 -1 5 C-0.67 3.35 -0.34 1.7 0 0 Z " fill="#FFC8C8" transform="translate(334,349)"/>
<path d="M0 0 C0.99 0 1.98 0 3 0 C3 2.64 3 5.28 3 8 C2.01 8 1.02 8 0 8 C0 5.36 0 2.72 0 0 Z " fill="#FFD8D8" transform="translate(293,323)"/>
<path d="M0 0 C1.65 0 3.3 0 5 0 C4.67 1.65 4.34 3.3 4 5 C2.68 5 1.36 5 0 5 C0 3.35 0 1.7 0 0 Z " fill="#FF6464" transform="translate(266,324)"/>
<path d="M0 0 C1.65 0 3.3 0 5 0 C5 0.66 5 1.32 5 2 C4.01 2 3.02 2 2 2 C2 4.31 2 6.62 2 9 C1.34 9 0.68 9 0 9 C0 6.03 0 3.06 0 0 Z " fill="#FFE7E7" transform="translate(257,322)"/>
<path d="M0 0 C0.33 0 0.66 0 1 0 C1 2.31 1 4.62 1 7 C0.67 6.34 0.34 5.68 0 5 C-1.98 5.33 -3.96 5.66 -6 6 C-6 5.01 -6 4.02 -6 3 C-4.02 3 -2.04 3 0 3 C0 2.01 0 1.02 0 0 Z " fill="#FF8383" transform="translate(302,351)"/>
<path d="M0 0 C2.475 0.495 2.475 0.495 5 1 C4.67 2.32 4.34 3.64 4 5 C2.68 5 1.36 5 0 5 C0 3.35 0 1.7 0 0 Z " fill="#FF5A5A" transform="translate(409,324)"/>
<path d="M0 0 C2.475 0.495 2.475 0.495 5 1 C4.67 2.32 4.34 3.64 4 5 C2.68 5 1.36 5 0 5 C0 3.35 0 1.7 0 0 Z " fill="#FF5555" transform="translate(247,324)"/>
<path d="M0 0 C0.33 0 0.66 0 1 0 C1.1875 2.875 1.1875 2.875 1 6 C-2.22791555 8.1519437 -3.28400809 8.20086443 -7 8 C-6.38125 7.5875 -5.7625 7.175 -5.125 6.75 C-2.9158484 4.93069868 -2.12030937 3.58532933 -1 1 C-0.67 0.67 -0.34 0.34 0 0 Z " fill="#FFCACA" transform="translate(416,296)"/>
<path d="M0 0 C0.66 0.33 1.32 0.66 2 1 C-0.64 3.64 -3.28 6.28 -6 9 C-6.33 8.34 -6.66 7.68 -7 7 C-2.25 1.125 -2.25 1.125 0 0 Z " fill="#FFE5E5" transform="translate(399,44)"/>
<path d="M0 0 C0.99 1.485 0.99 1.485 2 3 C5.08365871 3.2502157 5.08365871 3.2502157 8 3 C7.67 3.99 7.34 4.98 7 6 C5.00045254 6.04254356 2.99958364 6.04080783 1 6 C0 5 0 5 -0.0625 2.4375 C-0.041875 1.633125 -0.02125 0.82875 0 0 Z " fill="#FFEBEB" transform="translate(358,325)"/>
<path d="M0 0 C1.65 0 3.3 0 5 0 C5.33 0.66 5.66 1.32 6 2 C5.67 2.99 5.34 3.98 5 5 C3.35 5 1.7 5 0 5 C0 3.33333333 0 1.66666667 0 0 Z " fill="#FF9C9C" transform="translate(314,321)"/>
<path d="M0 0 C2.375 -0.1875 2.375 -0.1875 5 0 C5.66 0.99 6.32 1.98 7 3 C6 4 6 4 2.9375 4.0625 C1.4834375 4.0315625 1.4834375 4.0315625 0 4 C0 2.66666667 0 1.33333333 0 0 Z " fill="#FFA8A8" transform="translate(247,294)"/>
<path d="M0 0 C-1.15173355 2.46800047 -2.04783565 4.04783565 -4 6 C-4.39764263 7.98821313 -4.73775349 9.98944339 -5 12 C-5.33 12 -5.66 12 -6 12 C-6.32644414 7.83783725 -6.40650982 5.63686538 -4.125 2.0625 C-2 0 -2 0 0 0 Z " fill="#FF6464" transform="translate(254,137)"/>
<path d="M0 0 C0.66 0.33 1.32 0.66 2 1 C-0.64 3.64 -3.28 6.28 -6 9 C-6.33 8.34 -6.66 7.68 -7 7 C-4.78071806 4.09197539 -3.07030857 2.04687238 0 0 Z " fill="#FFDBDB" transform="translate(254,45)"/>
<path d="M0 0 C1.32 0 2.64 0 4 0 C4 1.65 4 3.3 4 5 C2.68 5 1.36 5 0 5 C0 3.35 0 1.7 0 0 Z " fill="#FF5454" transform="translate(233,351)"/>
<path d="M0 0 C2.31 0 4.62 0 7 0 C7 1.65 7 3.3 7 5 C6.01 5.495 6.01 5.495 5 6 C5 5.01 5 4.02 5 3 C3.35 2.67 1.7 2.34 0 2 C0 1.34 0 0.68 0 0 Z " fill="#FF6A6A" transform="translate(266,296)"/>
<path d="M0 0 C3.71599191 -0.20086443 4.77208445 -0.1519437 8 2 C8.1875 4.625 8.1875 4.625 8 7 C7.01 6.67 6.02 6.34 5 6 C4.67 5.01 4.34 4.02 4 3 C2.00334686 1.31461399 2.00334686 1.31461399 0 0 Z " fill="#FFCECE" transform="translate(275,294)"/>
<path d="M0 0 C0.66 0.33 1.32 0.66 2 1 C-0.64 3.64 -3.28 6.28 -6 9 C-6 6 -6 6 -3.5625 3.375 C-2.716875 2.59125 -1.87125 1.8075 -1 1 C-0.67 0.67 -0.34 0.34 0 0 Z " fill="#FFDDDD" transform="translate(177,125)"/>
<path d="M0 0 C6.93 0.495 6.93 0.495 14 1 C14 1.33 14 1.66 14 2 C10.04 2 6.08 2 2 2 C1.67 2.99 1.34 3.98 1 5 C0.67 3.35 0.34 1.7 0 0 Z " fill="#FFD8D8" transform="translate(184,94)"/>
<path d="M0 0 C1.2065625 0.0309375 1.2065625 0.0309375 2.4375 0.0625 C2.7675 0.7225 3.0975 1.3825 3.4375 2.0625 C2.014375 2.495625 2.014375 2.495625 0.5625 2.9375 C-2.61461578 3.83075109 -2.61461578 3.83075109 -4.5625 6.0625 C-3.48963568 0.08511307 -3.48963568 0.08511307 0 0 Z " fill="#FFEFEF" transform="translate(393.5625,348.9375)"/>
<path d="M0 0 C1.4540625 0.0309375 1.4540625 0.0309375 2.9375 0.0625 C2.9375 0.7225 2.9375 1.3825 2.9375 2.0625 C0.6275 2.3925 -1.6825 2.7225 -4.0625 3.0625 C-4.3925 4.0525 -4.7225 5.0425 -5.0625 6.0625 C-3.98897059 0.08140756 -3.98897059 0.08140756 0 0 Z " fill="#FFEBEB" transform="translate(343.0625,348.9375)"/>
<path d="M0 0 C0.99 0 1.98 0 3 0 C3 1.32 3 2.64 3 4 C1.02 4.33 -0.96 4.66 -3 5 C-2.34 4.67 -1.68 4.34 -1 4 C-0.34786708 1.97536745 -0.34786708 1.97536745 0 0 Z " fill="#FFA2A2" transform="translate(370,299)"/>
<path d="M0 0 C0.99 0.33 1.98 0.66 3 1 C3 3.64 3 6.28 3 9 C2.34 9 1.68 9 1 9 C0.67 6.03 0.34 3.06 0 0 Z " fill="#FFF0F0" transform="translate(291,295)"/>
<path d="M0 0 C1.32 0.33 2.64 0.66 4 1 C3.67 2.32 3.34 3.64 3 5 C0.03 4.505 0.03 4.505 -3 4 C-3 3.34 -3 2.68 -3 2 C-1.68 2.33 -0.36 2.66 1 3 C0.67 2.01 0.34 1.02 0 0 Z " fill="#FF7070" transform="translate(333,294)"/>
<path d="M0 0 C2.475 0.495 2.475 0.495 5 1 C4.34 2.98 3.68 4.96 3 7 C2.34 7 1.68 7 1 7 C0.67 4.69 0.34 2.38 0 0 Z " fill="#FF6363" transform="translate(314,126)"/>
<path d="M0 0 C0.99 0 1.98 0 3 0 C3.33 1.32 3.66 2.64 4 4 C2.35 4.33 0.7 4.66 -1 5 C-1.33 4.34 -1.66 3.68 -2 3 C-1.34 3 -0.68 3 0 3 C0 2.01 0 1.02 0 0 Z " fill="#FF9A9A" transform="translate(387,327)"/>
<path d="M0 0 C-0.928125 0.4021875 -0.928125 0.4021875 -1.875 0.8125 C-4.2995233 1.95556848 -4.2995233 1.95556848 -6 5 C-6.33 3.35 -6.66 1.7 -7 0 C-3.86650268 -1.04449911 -3.01031744 -0.93423645 0 0 Z " fill="#FFE0E0" transform="translate(241,295)"/>
<path d="M0 0 C0.99 0.99 1.98 1.98 3 3 C2.01 4.485 2.01 4.485 1 6 C-0.32 6 -1.64 6 -3 6 C-3 5.34 -3 4.68 -3 4 C-2.01 4 -1.02 4 0 4 C0 2.68 0 1.36 0 0 Z " fill="#FFD2D2" transform="translate(330,357)"/>
<path d="M0 0 C1.67542976 0.28604898 3.34385343 0.61781233 5 1 C5.33 2.65 5.66 4.3 6 6 C5.5875 5.54625 5.175 5.0925 4.75 4.625 C2.93591905 2.94049626 1.24714373 2.00734029 -1 1 C-0.67 0.67 -0.34 0.34 0 0 Z " fill="#FFECEC" transform="translate(246,349)"/>
<path d="M0 0 C0.99 0.33 1.98 0.66 3 1 C2.67 1.99 2.34 2.98 2 4 C0.35 4 -1.3 4 -3 4 C-2.67 3.01 -2.34 2.02 -2 1 C-1.34 0.67 -0.68 0.34 0 0 Z " fill="#FFA1A1" transform="translate(299,349)"/>
<path d="M0 0 C0.66 0 1.32 0 2 0 C2 2.64 2 5.28 2 8 C1.01 7.67 0.02 7.34 -1 7 C-0.67 4.69 -0.34 2.38 0 0 Z " fill="#FFE4E4" transform="translate(391,323)"/>
</svg>
